<svg xmlns="http://www.w3.org/2000/svg" xmlns:xlink="http://www.w3.org/1999/xlink" xmlns:inkscape="http://www.inkscape.org/namespaces/inkscape" version="1.1" width="556.2911" height="195.43187" viewBox="0 0 556.2911 195.43187">
<defs>
<clipPath id="clip_1">
<path transform="matrix(1,0,0,-1,0,195.43187)" d="M37.298128 17.391875H552.52V194.71189H37.298128Z"/>
</clipPath>
<clipPath id="clip_2">
<path transform="matrix(1,0,0,-1,0,195.43187)" d="M37.298128 17.391875H552.52V194.71189H37.298128Z"/>
</clipPath>
<clipPath id="clip_3">
<path transform="matrix(1,0,0,-1,0,195.43187)" d="M37.298128 17.391875H552.52V194.71189H37.298128Z"/>
</clipPath>
<clipPath id="clip_4">
<path transform="matrix(1,0,0,-1,0,195.43187)" d="M37.298128 17.391875H552.52V194.71189H37.298128Z"/>
</clipPath>
<clipPath id="clip_5">
<path transform="matrix(1,0,0,-1,0,195.43187)" d="M37.298128 17.391875H552.52V194.71189H37.298128Z"/>
</clipPath>
<clipPath id="clip_6">
<path transform="matrix(1,0,0,-1,0,195.43187)" d="M37.298128 17.391875H552.52V194.71189H37.298128Z"/>
</clipPath>
<clipPath id="clip_7">
<path transform="matrix(1,0,0,-1,0,195.43187)" d="M37.298128 17.391875H552.52V194.71189H37.298128Z"/>
</clipPath>
<clipPath id="clip_8">
<path transform="matrix(1,0,0,-1,0,195.43187)" d="M37.298128 17.391875H552.52V194.71189H37.298128Z"/>
</clipPath>
<clipPath id="clip_9">
<path transform="matrix(1,0,0,-1,0,195.43187)" d="M37.298128 17.391875H552.52V194.71189H37.298128Z"/>
</clipPath>
<clipPath id="clip_10">
<path transform="matrix(1,0,0,-1,0,195.43187)" d="M37.298128 17.391875H552.52V194.71189H37.298128Z"/>
</clipPath>
<clipPath id="clip_11">
<path transform="matrix(1,0,0,-1,0,195.43187)" d="M37.298128 17.391875H552.52V194.71189H37.298128Z"/>
</clipPath>
<clipPath id="clip_12">
<path transform="matrix(1,0,0,-1,0,195.43187)" d="M37.298128 17.391875H552.52V194.71189H37.298128Z"/>
</clipPath>
<clipPath id="clip_13">
<path transform="matrix(1,0,0,-1,0,195.43187)" d="M37.298128 17.391875H552.52V194.71189H37.298128Z"/>
</clipPath>
<clipPath id="clip_14">
<path transform="matrix(1,0,0,-1,0,195.43187)" d="M37.298128 17.391875H552.52V194.71189H37.298128Z"/>
</clipPath>
<clipPath id="clip_15">
<path transform="matrix(1,0,0,-1,0,195.43187)" d="M37.298128 17.391875H552.52V194.71189H37.298128Z"/>
</clipPath>
<clipPath id="clip_16">
<path transform="matrix(1,0,0,-1,0,195.43187)" d="M37.298128 17.391875H552.52V194.71189H37.298128Z"/>
</clipPath>
<clipPath id="clip_17">
<path transform="matrix(1,0,0,-1,0,195.43187)" d="M37.298128 17.391875H552.52V194.71189H37.298128Z"/>
</clipPath>
<clipPath id="clip_18">
<path transform="matrix(1,0,0,-1,0,195.43187)" d="M37.298128 17.391875H552.52V194.71189H37.298128Z"/>
</clipPath>
<clipPath id="clip_19">
<path transform="matrix(1,0,0,-1,0,195.43187)" d="M37.298128 17.391875H552.52V194.71189H37.298128Z"/>
</clipPath>
<clipPath id="clip_20">
<path transform="matrix(.009,0,0,-.009,123.71071,23.50029)" d="M-1016-351H1660V1068H-1016Z"/>
</clipPath>
<clipPath id="clip_21">
<path transform="matrix(.009,0,0,-.009,123.71071,37.00029)" d="M-1016-351H1660V1068H-1016Z"/>
</clipPath>
<clipPath id="clip_22">
<path transform="matrix(.009,0,0,-.009,123.71071,50.50029)" d="M-1016-351H1660V1068H-1016Z"/>
</clipPath>
<clipPath id="clip_23">
<path transform="matrix(.009,0,0,-.009,123.71071,64.00029)" d="M-1016-351H1660V1068H-1016Z"/>
</clipPath>
<clipPath id="clip_24">
<path transform="matrix(.009,0,0,-.009,249.84694,23.65654)" d="M-1016-351H1660V1068H-1016Z"/>
</clipPath>
<clipPath id="clip_25">
<path transform="matrix(.009,0,0,-.009,249.84694,37.15654)" d="M-1016-351H1660V1068H-1016Z"/>
</clipPath>
<clipPath id="clip_26">
<path transform="matrix(.009,0,0,-.009,230.84059,50.50029)" d="M-1016-351H1660V1068H-1016Z"/>
</clipPath>
<clipPath id="clip_27">
<path transform="matrix(.009,0,0,-.009,230.84059,64.00029)" d="M-1016-351H1660V1068H-1016Z"/>
</clipPath>
<clipPath id="clip_28">
<path transform="matrix(.009,0,0,-.009,361.491,23.65654)" d="M-1016-351H1660V1068H-1016Z"/>
</clipPath>
<clipPath id="clip_29">
<path transform="matrix(.009,0,0,-.009,361.491,37.15654)" d="M-1016-351H1660V1068H-1016Z"/>
</clipPath>
</defs>
<path transform="matrix(1,0,0,-1,0,195.43187)" d="M0 0H556.2911V195.43187H0Z" fill="#ffffff"/>
<path transform="matrix(1,0,0,-1,0,195.43187)" d="M37.298128 17.391875H552.52V194.71187H37.298128Z" fill="#ffffff"/>
<g clip-path="url(#clip_1)">
<path transform="matrix(1,0,0,-1,0,195.43187)" d="M60.7173-129.08986H88.50276V46.451856H60.7173Z" fill="#adc9e9"/>
<path transform="matrix(1,0,0,-1,0,195.43187)" stroke-width="1" stroke-linecap="butt" stroke-miterlimit="10" stroke-linejoin="miter" fill="none" stroke="#ffffff" d="M60.7173-129.08986H88.50276V46.451856H60.7173Z"/>
</g>
<g clip-path="url(#clip_2)">
<path transform="matrix(1,0,0,-1,0,195.43187)" d="M88.50276-129.08986H116.28823V44.20734H88.50276Z" fill="#5b93d4"/>
<path transform="matrix(1,0,0,-1,0,195.43187)" stroke-width="1" stroke-linecap="butt" stroke-miterlimit="10" stroke-linejoin="miter" fill="none" stroke="#ffffff" d="M88.50276-129.08986H116.28823V44.20734H88.50276Z"/>
</g>
<g clip-path="url(#clip_3)">
<path transform="matrix(1,0,0,-1,0,195.43187)" d="M132.16564-129.08986H159.9511V62.541044H132.16564Z" fill="#c8ddc4"/>
<path transform="matrix(1,0,0,-1,0,195.43187)" stroke-width="1" stroke-linecap="butt" stroke-miterlimit="10" stroke-linejoin="miter" fill="none" stroke="#ffffff" d="M132.16564-129.08986H159.9511V62.541044H132.16564Z"/>
</g>
<g clip-path="url(#clip_4)">
<path transform="matrix(1,0,0,-1,0,195.43187)" d="M159.9511-129.08986H187.73656V53.065538H159.9511Z" fill="#91bb89"/>
<path transform="matrix(1,0,0,-1,0,195.43187)" stroke-width="1" stroke-linecap="butt" stroke-miterlimit="10" stroke-linejoin="miter" fill="none" stroke="#ffffff" d="M159.9511-129.08986H187.73656V53.065538H159.9511Z"/>
</g>
<g clip-path="url(#clip_5)">
<path transform="matrix(1,0,0,-1,0,195.43187)" d="M203.61397-129.08986H231.39943V41.37901H203.61397Z" fill="#f8e4af"/>
<path transform="matrix(1,0,0,-1,0,195.43187)" stroke-width="1" stroke-linecap="butt" stroke-miterlimit="10" stroke-linejoin="miter" fill="none" stroke="#ffffff" d="M203.61397-129.08986H231.39943V41.37901H203.61397Z"/>
</g>
<g clip-path="url(#clip_6)">
<path transform="matrix(1,0,0,-1,0,195.43187)" d="M231.39943-129.08986H259.1849V37.5051H231.39943Z" fill="#f2c95f"/>
<path transform="matrix(1,0,0,-1,0,195.43187)" stroke-width="1" stroke-linecap="butt" stroke-miterlimit="10" stroke-linejoin="miter" fill="none" stroke="#ffffff" d="M231.39943-129.08986H259.1849V37.5051H231.39943Z"/>
</g>
<g clip-path="url(#clip_7)">
<path transform="matrix(1,0,0,-1,0,195.43187)" d="M275.06233-129.08986H302.84779V40.702589H275.06233Z" fill="#f6c19d"/>
<path transform="matrix(1,0,0,-1,0,195.43187)" stroke-width="1" stroke-linecap="butt" stroke-miterlimit="10" stroke-linejoin="miter" fill="none" stroke="#ffffff" d="M275.06233-129.08986H302.84779V40.702589H275.06233Z"/>
</g>
<g clip-path="url(#clip_8)">
<path transform="matrix(1,0,0,-1,0,195.43187)" d="M302.84779-129.08986H330.63325V36.27555H302.84779Z" fill="#ed833b"/>
<path transform="matrix(1,0,0,-1,0,195.43187)" stroke-width="1" stroke-linecap="butt" stroke-miterlimit="10" stroke-linejoin="miter" fill="none" stroke="#ffffff" d="M302.84779-129.08986H330.63325V36.27555H302.84779Z"/>
</g>
<g clip-path="url(#clip_9)">
<path transform="matrix(1,0,0,-1,0,195.43187)" d="M346.51066-129.08986H374.2961V109.135707H346.51066Z" fill="#eaafaf"/>
<path transform="matrix(1,0,0,-1,0,195.43187)" stroke-width="1" stroke-linecap="butt" stroke-miterlimit="10" stroke-linejoin="miter" fill="none" stroke="#ffffff" d="M346.51066-129.08986H374.2961V109.135707H346.51066Z"/>
</g>
<g clip-path="url(#clip_10)">
<path transform="matrix(1,0,0,-1,0,195.43187)" d="M374.2961-129.08986H402.08158V103.27643H374.2961Z" fill="#d65f5f"/>
<path transform="matrix(1,0,0,-1,0,195.43187)" stroke-width="1" stroke-linecap="butt" stroke-miterlimit="10" stroke-linejoin="miter" fill="none" stroke="#ffffff" d="M374.2961-129.08986H402.08158V103.27643H374.2961Z"/>
</g>
<g clip-path="url(#clip_11)">
<path transform="matrix(1,0,0,-1,0,195.43187)" d="M473.5299-129.08986H501.31538V158.72504H473.5299Z" fill="#eaafaf"/>
<path transform="matrix(1,0,0,-1,0,195.43187)" stroke-width="1" stroke-linecap="butt" stroke-miterlimit="10" stroke-linejoin="miter" fill="none" stroke="#ffffff" d="M473.5299-129.08986H501.31538V158.72504H473.5299Z"/>
</g>
<g clip-path="url(#clip_12)">
<path transform="matrix(1,0,0,-1,0,195.43187)" d="M501.31538-129.08986H529.1008V156.45403H501.31538Z" fill="#d65f5f"/>
<path transform="matrix(1,0,0,-1,0,195.43187)" stroke-width="1" stroke-linecap="butt" stroke-miterlimit="10" stroke-linejoin="miter" fill="none" stroke="#ffffff" d="M501.31538-129.08986H529.1008V156.45403H501.31538Z"/>
</g>
<path transform="matrix(1,0,0,-1,0,195.43187)" d="M74.61003 17.391875V13.891875"/>
<path transform="matrix(1,0,0,-1,0,195.43187)" stroke-width=".8" stroke-linecap="butt" stroke-linejoin="round" fill="none" stroke="#000000" d="M74.61003 17.391875V13.891875"/>
<path transform="matrix(1,0,0,-1,0,195.43187)" d="M102.3955 17.391875V13.891875"/>
<path transform="matrix(1,0,0,-1,0,195.43187)" stroke-width=".8" stroke-linecap="butt" stroke-linejoin="round" fill="none" stroke="#000000" d="M102.3955 17.391875V13.891875"/>
<path transform="matrix(1,0,0,-1,0,195.43187)" d="M146.05837 17.391875V13.891875"/>
<path transform="matrix(1,0,0,-1,0,195.43187)" stroke-width=".8" stroke-linecap="butt" stroke-linejoin="round" fill="none" stroke="#000000" d="M146.05837 17.391875V13.891875"/>
<path transform="matrix(1,0,0,-1,0,195.43187)" d="M173.84383 17.391875V13.891875"/>
<path transform="matrix(1,0,0,-1,0,195.43187)" stroke-width=".8" stroke-linecap="butt" stroke-linejoin="round" fill="none" stroke="#000000" d="M173.84383 17.391875V13.891875"/>
<path transform="matrix(1,0,0,-1,0,195.43187)" d="M217.5067 17.391875V13.891875"/>
<path transform="matrix(1,0,0,-1,0,195.43187)" stroke-width=".8" stroke-linecap="butt" stroke-linejoin="round" fill="none" stroke="#000000" d="M217.5067 17.391875V13.891875"/>
<text xml:space="preserve" transform="matrix(1 0 -0 1 134.28795 192.63375)" font-size="10" font-family="DejaVuSans"><tspan y="0" x="0 3.1800004 6.3600008 9.540001 12.720001 15.900002 19.080002 22.260003 25.440003 28.620003 31.800004 34.980005 38.160005 41.340005 49.970006 56.310007 59.090005 63.010004 65.79 72.14 74.92 81.07 84.25 90.57 96.49 102.84 108.99 113.1 117.02 122.229999 125.409999 131.76 137.90999 142.01999 145.19998 152.94998 158.97998">             Multiple Experts per GPU</tspan></text>
<path transform="matrix(1,0,0,-1,0,195.43187)" d="M245.29216 17.391875V13.891875"/>
<path transform="matrix(1,0,0,-1,0,195.43187)" stroke-width=".8" stroke-linecap="butt" stroke-linejoin="round" fill="none" stroke="#000000" d="M245.29216 17.391875V13.891875"/>
<path transform="matrix(1,0,0,-1,0,195.43187)" d="M288.95506 17.391875V13.891875"/>
<path transform="matrix(1,0,0,-1,0,195.43187)" stroke-width=".8" stroke-linecap="butt" stroke-linejoin="round" fill="none" stroke="#000000" d="M288.95506 17.391875V13.891875"/>
<path transform="matrix(1,0,0,-1,0,195.43187)" d="M316.7405 17.391875V13.891875"/>
<path transform="matrix(1,0,0,-1,0,195.43187)" stroke-width=".8" stroke-linecap="butt" stroke-linejoin="round" fill="none" stroke="#000000" d="M316.7405 17.391875V13.891875"/>
<path transform="matrix(1,0,0,-1,0,195.43187)" d="M360.40339 17.391875V13.891875"/>
<path transform="matrix(1,0,0,-1,0,195.43187)" stroke-width=".8" stroke-linecap="butt" stroke-linejoin="round" fill="none" stroke="#000000" d="M360.40339 17.391875V13.891875"/>
<path transform="matrix(1,0,0,-1,0,195.43187)" d="M388.18885 17.391875V13.891875"/>
<path transform="matrix(1,0,0,-1,0,195.43187)" stroke-width=".8" stroke-linecap="butt" stroke-linejoin="round" fill="none" stroke="#000000" d="M388.18885 17.391875V13.891875"/>
<path transform="matrix(1,0,0,-1,0,195.43187)" d="M487.42265 17.391875V13.891875"/>
<path transform="matrix(1,0,0,-1,0,195.43187)" stroke-width=".8" stroke-linecap="butt" stroke-linejoin="round" fill="none" stroke="#000000" d="M487.42265 17.391875V13.891875"/>
<text xml:space="preserve" transform="matrix(1 0 -0 1 419.2742 192.63375)" font-size="10" font-family="DejaVuSans"><tspan y="0" x="0 3.1800004 6.3600008 9.540001 12.720001 15.900002 19.080002 22.260003 25.440003 31.790003 34.570005 40.910005 47.260004 50.04 56.190004 59.370004 65.69 71.61 77.96 84.11 88.22 92.14 95.32 101.67 107.82 111.93 115.11 122.86 128.89">        Single Expert per GPU</tspan></text>
<path transform="matrix(1,0,0,-1,0,195.43187)" d="M515.20809 17.391875V13.891875"/>
<path transform="matrix(1,0,0,-1,0,195.43187)" stroke-width=".8" stroke-linecap="butt" stroke-linejoin="round" fill="none" stroke="#000000" d="M515.20809 17.391875V13.891875"/>
<g clip-path="url(#clip_13)">
<path transform="matrix(1,0,0,-1,0,195.43187)" stroke-width=".8" stroke-linecap="butt" stroke-dasharray="2.96,1.28" stroke-linejoin="round" fill="none" stroke="#b0b0b0" stroke-opacity=".8" d="M37.298128 25.10144H552.52"/>
</g>
<path transform="matrix(1,0,0,-1,0,195.43187)" d="M37.298128 25.10144H33.798128"/>
<path transform="matrix(1,0,0,-1,0,195.43187)" stroke-width=".8" stroke-linecap="butt" stroke-linejoin="round" fill="none" stroke="#000000" d="M37.298128 25.10144H33.798128"/>
<text xml:space="preserve" transform="matrix(1 0 -0 1 14.391875 174.1273)" font-size="10" font-family="DejaVuSans"><tspan y="0" x="0 6.3600008 9.540001">1.0</tspan></text>
<g clip-path="url(#clip_14)">
<path transform="matrix(1,0,0,-1,0,195.43187)" stroke-width=".8" stroke-linecap="butt" stroke-dasharray="2.96,1.28" stroke-linejoin="round" fill="none" stroke="#b0b0b0" stroke-opacity=".8" d="M37.298128 55.9397H552.52"/>
</g>
<path transform="matrix(1,0,0,-1,0,195.43187)" d="M37.298128 55.9397H33.798128"/>
<path transform="matrix(1,0,0,-1,0,195.43187)" stroke-width=".8" stroke-linecap="butt" stroke-linejoin="round" fill="none" stroke="#000000" d="M37.298128 55.9397H33.798128"/>
<text xml:space="preserve" transform="matrix(1 0 -0 1 14.391875 143.28905)" font-size="10" font-family="DejaVuSans"><tspan y="0" x="0 6.3600008 9.540001">1.2</tspan></text>
<g clip-path="url(#clip_15)">
<path transform="matrix(1,0,0,-1,0,195.43187)" stroke-width=".8" stroke-linecap="butt" stroke-dasharray="2.96,1.28" stroke-linejoin="round" fill="none" stroke="#b0b0b0" stroke-opacity=".8" d="M37.298128 86.77796H552.52"/>
</g>
<path transform="matrix(1,0,0,-1,0,195.43187)" d="M37.298128 86.77796H33.798128"/>
<path transform="matrix(1,0,0,-1,0,195.43187)" stroke-width=".8" stroke-linecap="butt" stroke-linejoin="round" fill="none" stroke="#000000" d="M37.298128 86.77796H33.798128"/>
<text xml:space="preserve" transform="matrix(1 0 -0 1 14.391875 112.45078)" font-size="10" font-family="DejaVuSans"><tspan y="0" x="0 6.3600008 9.540001">1.4</tspan></text>
<g clip-path="url(#clip_16)">
<path transform="matrix(1,0,0,-1,0,195.43187)" stroke-width=".8" stroke-linecap="butt" stroke-dasharray="2.96,1.28" stroke-linejoin="round" fill="none" stroke="#b0b0b0" stroke-opacity=".8" d="M37.298128 117.61623H552.52"/>
</g>
<path transform="matrix(1,0,0,-1,0,195.43187)" d="M37.298128 117.61623H33.798128"/>
<path transform="matrix(1,0,0,-1,0,195.43187)" stroke-width=".8" stroke-linecap="butt" stroke-linejoin="round" fill="none" stroke="#000000" d="M37.298128 117.61623H33.798128"/>
<text xml:space="preserve" transform="matrix(1 0 -0 1 14.391875 81.612529)" font-size="10" font-family="DejaVuSans"><tspan y="0" x="0 6.3600008 9.540001">1.6</tspan></text>
<g clip-path="url(#clip_17)">
<path transform="matrix(1,0,0,-1,0,195.43187)" stroke-width=".8" stroke-linecap="butt" stroke-dasharray="2.96,1.28" stroke-linejoin="round" fill="none" stroke="#b0b0b0" stroke-opacity=".8" d="M37.298128 148.45449H552.52"/>
</g>
<path transform="matrix(1,0,0,-1,0,195.43187)" d="M37.298128 148.45449H33.798128"/>
<path transform="matrix(1,0,0,-1,0,195.43187)" stroke-width=".8" stroke-linecap="butt" stroke-linejoin="round" fill="none" stroke="#000000" d="M37.298128 148.45449H33.798128"/>
<text xml:space="preserve" transform="matrix(1 0 -0 1 14.391875 50.77426)" font-size="10" font-family="DejaVuSans"><tspan y="0" x="0 6.3600008 9.540001">1.8</tspan></text>
<g clip-path="url(#clip_18)">
<path transform="matrix(1,0,0,-1,0,195.43187)" stroke-width=".8" stroke-linecap="butt" stroke-dasharray="2.96,1.28" stroke-linejoin="round" fill="none" stroke="#b0b0b0" stroke-opacity=".8" d="M37.298128 179.29274H552.52"/>
</g>
<path transform="matrix(1,0,0,-1,0,195.43187)" d="M37.298128 179.29274H33.798128"/>
<path transform="matrix(1,0,0,-1,0,195.43187)" stroke-width=".8" stroke-linecap="butt" stroke-linejoin="round" fill="none" stroke="#000000" d="M37.298128 179.29274H33.798128"/>
<text xml:space="preserve" transform="matrix(1 0 -0 1 14.391875 19.936005)" font-size="10" font-family="DejaVuSans"><tspan y="0" x="0 6.3600008 9.540001">2.0</tspan></text>
<text xml:space="preserve" transform="matrix(0 -1 1 0 8.31375 111.39562)" font-size="10" font-family="DejaVuSans"><tspan y="0" x="0 6.3500006 12.700001 18.85 25 31.35 37.690004">Speedup</tspan></text>
<g clip-path="url(#clip_19)">
<path transform="matrix(1,0,0,-1,0,195.43187)" stroke-width="2" stroke-linecap="square" stroke-linejoin="round" fill="none" stroke="#808080" d="M437.80574 17.391875V194.71187"/>
</g>
<path transform="matrix(1,0,0,-1,0,195.43187)" stroke-width="2" stroke-linecap="square" stroke-miterlimit="10" stroke-linejoin="miter" fill="none" stroke="#000000" d="M37.298128 17.391875H552.52"/>
<text fill="#ffffff" xml:space="preserve" transform="matrix(1 0 -0 1 63.477224 161.19951)" font-size="10" font-family="DejaVuSans"><tspan y="0" x="0 6.3600008 9.540001 15.900002">1.14</tspan></text>
<text fill="#ffffff" xml:space="preserve" transform="matrix(1 0 -0 1 91.26269 163.44402)" font-size="10" font-family="DejaVuSans"><tspan y="0" x="0 6.3600008 9.540001 15.900002">1.12</tspan></text>
<text fill="#ffffff" xml:space="preserve" transform="matrix(1 0 -0 1 134.92555 145.11032)" font-size="10" font-family="DejaVuSans"><tspan y="0" x="0 6.3600008 9.540001 15.900002">1.24</tspan></text>
<text fill="#ffffff" xml:space="preserve" transform="matrix(1 0 -0 1 162.71102 154.58582)" font-size="10" font-family="DejaVuSans"><tspan y="0" x="0 6.3600008 9.540001 15.900002">1.18</tspan></text>
<text fill="#ffffff" xml:space="preserve" transform="matrix(1 0 -0 1 206.37389 166.27236)" font-size="10" font-family="DejaVuSans"><tspan y="0" x="0 6.3600008 9.540001 15.900002">1.11</tspan></text>
<text fill="#ffffff" xml:space="preserve" transform="matrix(1 0 -0 1 234.15935 170.14626)" font-size="10" font-family="DejaVuSans"><tspan y="0" x="0 6.3600008 9.540001 15.900002">1.08</tspan></text>
<text fill="#ffffff" xml:space="preserve" transform="matrix(1 0 -0 1 277.82225 166.94876)" font-size="10" font-family="DejaVuSans"><tspan y="0" x="0 6.3600008 9.540001 15.900002">1.10</tspan></text>
<text fill="#ffffff" xml:space="preserve" transform="matrix(1 0 -0 1 305.6077 171.37581)" font-size="10" font-family="DejaVuSans"><tspan y="0" x="0 6.3600008 9.540001 15.900002">1.07</tspan></text>
<text fill="#ffffff" xml:space="preserve" transform="matrix(1 0 -0 1 349.27058 98.515659)" font-size="10" font-family="DejaVuSans"><tspan y="0" x="0 6.3600008 9.540001 15.900002">1.54</tspan></text>
<text fill="#ffffff" xml:space="preserve" transform="matrix(1 0 -0 1 377.05604 104.37492)" font-size="10" font-family="DejaVuSans"><tspan y="0" x="0 6.3600008 9.540001 15.900002">1.51</tspan></text>
<text fill="#ffffff" xml:space="preserve" transform="matrix(1 0 -0 1 476.28984 48.926317)" font-size="10" font-family="DejaVuSans"><tspan y="0" x="0 6.3600008 9.540001 15.900002">1.87</tspan></text>
<text fill="#ffffff" xml:space="preserve" transform="matrix(1 0 -0 1 504.0753 51.197343)" font-size="10" font-family="DejaVuSans"><tspan y="0" x="0 6.3600008 9.540001 15.900002">1.85</tspan></text>
<g>
<path transform="matrix(1,0,0,-1,0,195.43187)" d="M64.207 124.61907H410.107C411.307 124.61907 411.907 125.21908 411.907 126.419078V181.31908C411.907 182.51908 411.307 183.11908 410.107 183.11908H64.207C63.007 183.11908 62.407 182.51908 62.407 181.31908V126.419078C62.407 125.21908 63.007 124.61907 64.207 124.61907Z" fill="#ffffff" fill-opacity=".8"/>
<path transform="matrix(1,0,0,-1,0,195.43187)" stroke-width="1" stroke-linecap="butt" stroke-miterlimit="10" stroke-linejoin="miter" fill="none" stroke="#cccccc" stroke-opacity=".8" d="M64.207 124.61907H410.107C411.307 124.61907 411.907 125.21908 411.907 126.419078V181.31908C411.907 182.51908 411.307 183.11908 410.107 183.11908H64.207C63.007 183.11908 62.407 182.51908 62.407 181.31908V126.419078C62.407 125.21908 63.007 124.61907 64.207 124.61907Z"/>
</g>
<path transform="matrix(1,0,0,-1,0,195.43187)" d="M66.907 171.61908H84.907V177.91907H66.907Z" fill="#adc9e9"/>
<path transform="matrix(1,0,0,-1,0,195.43187)" stroke-width="1" stroke-linecap="butt" stroke-miterlimit="10" stroke-linejoin="miter" fill="none" stroke="#adc9e9" d="M66.907 171.61908H84.907V177.91907H66.907Z"/>
<text xml:space="preserve" transform="matrix(1 0 -0 1 89.407 23.81279)" font-size="9" font-family="DejaVuSans"><tspan y="-.3125" x="0 7.0839846 12.098145 19.863282 25.369629 31.056153 39.629884 47.1709 52.896974 55.757814 61.483888 64.731449 70.229007 72.96484">OLMoE-=2.0-T.D</tspan></text>
<g clip-path="url(#clip_20)">
<path transform="matrix(.009,0,0,-.009,123.71071,23.50029)" d="M233 461 287 123 540 547H635L308 0 268-207H178L218 0 154 408C148 449 129 470 98 470H74L89 547H123C187 547 223 518 233 461Z"/>
</g>
<path transform="matrix(1,0,0,-1,0,195.43187)" d="M66.907 158.11908H84.907V164.41907H66.907Z" fill="#5b93d4"/>
<path transform="matrix(1,0,0,-1,0,195.43187)" stroke-width="1" stroke-linecap="butt" stroke-miterlimit="10" stroke-linejoin="miter" fill="none" stroke="#5b93d4" d="M66.907 158.11908H84.907V164.41907H66.907Z"/>
<text xml:space="preserve" transform="matrix(1 0 -0 1 89.407 37.31279)" font-size="9" font-family="DejaVuSans"><tspan y="-.3125" x="0 7.0839846 12.098145 19.863282 25.369629 31.056153 39.629884 47.1709 52.896974 55.757814 61.483888 64.731449 70.41797 73.15381">OLMoE-=2.0-E.D</tspan></text>
<g clip-path="url(#clip_21)">
<path transform="matrix(.009,0,0,-.009,123.71071,37.00029)" d="M233 461 287 123 540 547H635L308 0 268-207H178L218 0 154 408C148 449 129 470 98 470H74L89 547H123C187 547 223 518 233 461Z"/>
</g>
<path transform="matrix(1,0,0,-1,0,195.43187)" d="M66.907 144.61908H84.907V150.91907H66.907Z" fill="#c8ddc4"/>
<path transform="matrix(1,0,0,-1,0,195.43187)" stroke-width="1" stroke-linecap="butt" stroke-miterlimit="10" stroke-linejoin="miter" fill="none" stroke="#c8ddc4" d="M66.907 144.61908H84.907V150.91907H66.907Z"/>
<text xml:space="preserve" transform="matrix(1 0 -0 1 89.407 50.81279)" font-size="9" font-family="DejaVuSans"><tspan y="-.3125" x="0 7.0839846 12.098145 19.863282 25.369629 31.056153 39.629884 47.1709 52.896974 55.757814 61.483888 64.731449 70.229007 72.96484">OLMoE-=0.5-T.D</tspan></text>
<g clip-path="url(#clip_22)">
<path transform="matrix(.009,0,0,-.009,123.71071,50.50029)" d="M233 461 287 123 540 547H635L308 0 268-207H178L218 0 154 408C148 449 129 470 98 470H74L89 547H123C187 547 223 518 233 461Z"/>
</g>
<path transform="matrix(1,0,0,-1,0,195.43187)" d="M66.907 131.11908H84.907V137.41907H66.907Z" fill="#91bb89"/>
<path transform="matrix(1,0,0,-1,0,195.43187)" stroke-width="1" stroke-linecap="butt" stroke-miterlimit="10" stroke-linejoin="miter" fill="none" stroke="#91bb89" d="M66.907 131.11908H84.907V137.41907H66.907Z"/>
<text xml:space="preserve" transform="matrix(1 0 -0 1 89.407 64.31279)" font-size="9" font-family="DejaVuSans"><tspan y="-.3125" x="0 7.0839846 12.098145 19.863282 25.369629 31.056153 39.629884 47.1709 52.896974 55.757814 61.483888 64.731449 70.41797 73.15381">OLMoE-=0.5-E.D</tspan></text>
<g clip-path="url(#clip_23)">
<path transform="matrix(.009,0,0,-.009,123.71071,64.00029)" d="M233 461 287 123 540 547H635L308 0 268-207H178L218 0 154 408C148 449 129 470 98 470H74L89 547H123C187 547 223 518 233 461Z"/>
</g>
<path transform="matrix(1,0,0,-1,0,195.43187)" d="M179.407 171.61908H197.407V177.91907H179.407Z" fill="#f8e4af"/>
<path transform="matrix(1,0,0,-1,0,195.43187)" stroke-width="1" stroke-linecap="butt" stroke-miterlimit="10" stroke-linejoin="miter" fill="none" stroke="#f8e4af" d="M179.407 171.61908H197.407V177.91907H179.407Z"/>
<text xml:space="preserve" transform="matrix(1 0 -0 1 201.907 23.81279)" font-size="9" font-family="DejaVuSans"><tspan y="-.15625" x="0 6.930176 12.467285 18.004395 23.717286 28.40625 33.94336 39.48047 44.692384 53.266115 60.80713 66.5332 69.39404 75.12012 78.367679 83.865238 86.601078">Deepseek-=2.0-T.D</tspan></text>
<g clip-path="url(#clip_24)">
<path transform="matrix(.009,0,0,-.009,249.84694,23.65654)" d="M233 461 287 123 540 547H635L308 0 268-207H178L218 0 154 408C148 449 129 470 98 470H74L89 547H123C187 547 223 518 233 461Z"/>
</g>
<path transform="matrix(1,0,0,-1,0,195.43187)" d="M179.407 158.11908H197.407V164.41907H179.407Z" fill="#f2c95f"/>
<path transform="matrix(1,0,0,-1,0,195.43187)" stroke-width="1" stroke-linecap="butt" stroke-miterlimit="10" stroke-linejoin="miter" fill="none" stroke="#f2c95f" d="M179.407 158.11908H197.407V164.41907H179.407Z"/>
<text xml:space="preserve" transform="matrix(1 0 -0 1 201.907 37.31279)" font-size="9" font-family="DejaVuSans"><tspan y="-.15625" x="0 6.930176 12.467285 18.004395 23.717286 28.40625 33.94336 39.48047 44.692384 53.266115 60.80713 66.5332 69.39404 75.12012 78.367679 84.0542 86.79004">Deepseek-=2.0-E.D</tspan></text>
<g clip-path="url(#clip_25)">
<path transform="matrix(.009,0,0,-.009,249.84694,37.15654)" d="M233 461 287 123 540 547H635L308 0 268-207H178L218 0 154 408C148 449 129 470 98 470H74L89 547H123C187 547 223 518 233 461Z"/>
</g>
<path transform="matrix(1,0,0,-1,0,195.43187)" d="M179.407 144.61908H197.407V150.91907H179.407Z" fill="#f6c19d"/>
<path transform="matrix(1,0,0,-1,0,195.43187)" stroke-width="1" stroke-linecap="butt" stroke-miterlimit="10" stroke-linejoin="miter" fill="none" stroke="#f6c19d" d="M179.407 144.61908H197.407V150.91907H179.407Z"/>
<text xml:space="preserve" transform="matrix(1 0 -0 1 201.907 50.81279)" font-size="9" font-family="DejaVuSans"><tspan y="-.3125" x="0 7.0839846 14.444824 19.981934 25.686036 34.259767 41.80078 47.526857 50.387697 56.11377 59.36133 64.85889 67.59473">Qwen-=1.5-T.D</tspan></text>
<g clip-path="url(#clip_26)">
<path transform="matrix(.009,0,0,-.009,230.84059,50.50029)" d="M233 461 287 123 540 547H635L308 0 268-207H178L218 0 154 408C148 449 129 470 98 470H74L89 547H123C187 547 223 518 233 461Z"/>
</g>
<path transform="matrix(1,0,0,-1,0,195.43187)" d="M179.407 131.11908H197.407V137.41907H179.407Z" fill="#ed833b"/>
<path transform="matrix(1,0,0,-1,0,195.43187)" stroke-width="1" stroke-linecap="butt" stroke-miterlimit="10" stroke-linejoin="miter" fill="none" stroke="#ed833b" d="M179.407 131.11908H197.407V137.41907H179.407Z"/>
<text xml:space="preserve" transform="matrix(1 0 -0 1 201.907 64.31279)" font-size="9" font-family="DejaVuSans"><tspan y="-.3125" x="0 7.0839846 14.444824 19.981934 25.686036 34.259767 41.80078 47.526857 50.387697 56.11377 59.36133 65.04785 67.78369">Qwen-=1.5-E.D</tspan></text>
<g clip-path="url(#clip_27)">
<path transform="matrix(.009,0,0,-.009,230.84059,64.00029)" d="M233 461 287 123 540 547H635L308 0 268-207H178L218 0 154 408C148 449 129 470 98 470H74L89 547H123C187 547 223 518 233 461Z"/>
</g>
<path transform="matrix(1,0,0,-1,0,195.43187)" d="M304.907 171.61908H322.907V177.91907H304.907Z" fill="#eaafaf"/>
<path transform="matrix(1,0,0,-1,0,195.43187)" stroke-width="1" stroke-linecap="butt" stroke-miterlimit="10" stroke-linejoin="miter" fill="none" stroke="#eaafaf" d="M304.907 171.61908H322.907V177.91907H304.907Z"/>
<text xml:space="preserve" transform="matrix(1 0 -0 1 327.407 23.81279)" font-size="9" font-family="DejaVuSans"><tspan y="-.15625" x="0 7.7651369 10.265625 15.591797 19.120606 22.8208 28.335938 30.836426 39.410158 46.95117 52.677248 55.538087 61.26416 64.51172 70.00928 72.74512">Mixtral-=1.5-T.D</tspan></text>
<g clip-path="url(#clip_28)">
<path transform="matrix(.009,0,0,-.009,361.491,23.65654)" d="M233 461 287 123 540 547H635L308 0 268-207H178L218 0 154 408C148 449 129 470 98 470H74L89 547H123C187 547 223 518 233 461Z"/>
</g>
<path transform="matrix(1,0,0,-1,0,195.43187)" d="M304.907 158.11908H322.907V164.41907H304.907Z" fill="#d65f5f"/>
<path transform="matrix(1,0,0,-1,0,195.43187)" stroke-width="1" stroke-linecap="butt" stroke-miterlimit="10" stroke-linejoin="miter" fill="none" stroke="#d65f5f" d="M304.907 158.11908H322.907V164.41907H304.907Z"/>
<text xml:space="preserve" transform="matrix(1 0 -0 1 327.407 37.31279)" font-size="9" font-family="DejaVuSans"><tspan y="-.15625" x="0 7.7651369 10.265625 15.591797 19.120606 22.8208 28.335938 30.836426 39.410158 46.95117 52.677248 55.538087 61.26416 64.51172 70.19824 72.93408">Mixtral-=1.5-E.D</tspan></text>
<g clip-path="url(#clip_29)">
<path transform="matrix(.009,0,0,-.009,361.491,37.15654)" d="M233 461 287 123 540 547H635L308 0 268-207H178L218 0 154 408C148 449 129 470 98 470H74L89 547H123C187 547 223 518 233 461Z"/>
</g>
</svg>
