<?xml version="1.0" encoding="UTF-8" standalone="no"?>
<!-- Created with Inkscape (http://www.inkscape.org/) -->

<svg
   version="1.1"
   id="svg1"
   width="1141.3492"
   height="570.95001"
   viewBox="0 0 1141.3492 570.95001"
   xmlns="http://www.w3.org/2000/svg"
   xmlns:svg="http://www.w3.org/2000/svg">
  <defs
     id="defs1">
    <clipPath
       clipPathUnits="userSpaceOnUse"
       id="clipPath4">
      <path
         d="M 48.371875,54.0125 H 848.81187 v 367 H 48.371875 Z"
         id="path4" />
    </clipPath>
    <clipPath
       clipPathUnits="userSpaceOnUse"
       id="clipPath6">
      <path
         d="M 48.371875,54.0125 H 848.81187 v 367 H 48.371875 Z"
         id="path6" />
    </clipPath>
    <clipPath
       clipPathUnits="userSpaceOnUse"
       id="clipPath8">
      <path
         d="M 48.371875,54.0125 H 848.81187 v 367 H 48.371875 Z"
         id="path8" />
    </clipPath>
    <clipPath
       clipPathUnits="userSpaceOnUse"
       id="clipPath10">
      <path
         d="M 48.371875,54.0125 H 848.81187 v 367 H 48.371875 Z"
         id="path10" />
    </clipPath>
    <clipPath
       clipPathUnits="userSpaceOnUse"
       id="clipPath12">
      <path
         d="M 48.371875,54.0125 H 848.81187 v 367 H 48.371875 Z"
         id="path12" />
    </clipPath>
    <clipPath
       clipPathUnits="userSpaceOnUse"
       id="clipPath14">
      <path
         d="M 48.371875,54.0125 H 848.81187 v 367 H 48.371875 Z"
         id="path14" />
    </clipPath>
    <clipPath
       clipPathUnits="userSpaceOnUse"
       id="clipPath16">
      <path
         d="M 48.371875,54.0125 H 848.81187 v 367 H 48.371875 Z"
         id="path16" />
    </clipPath>
    <clipPath
       clipPathUnits="userSpaceOnUse"
       id="clipPath18">
      <path
         d="M 48.371875,54.0125 H 848.81187 v 367 H 48.371875 Z"
         id="path18" />
    </clipPath>
    <clipPath
       clipPathUnits="userSpaceOnUse"
       id="clipPath20">
      <path
         d="M 48.371875,54.0125 H 848.81187 v 367 H 48.371875 Z"
         id="path20" />
    </clipPath>
    <clipPath
       clipPathUnits="userSpaceOnUse"
       id="clipPath22">
      <path
         d="M 48.371875,54.0125 H 848.81187 v 367 H 48.371875 Z"
         id="path22" />
    </clipPath>
    <clipPath
       clipPathUnits="userSpaceOnUse"
       id="clipPath24">
      <path
         d="M 48.371875,54.0125 H 848.81187 v 367 H 48.371875 Z"
         id="path24" />
    </clipPath>
    <clipPath
       clipPathUnits="userSpaceOnUse"
       id="clipPath26">
      <path
         d="M 48.371875,54.0125 H 848.81187 v 367 H 48.371875 Z"
         id="path26" />
    </clipPath>
    <clipPath
       clipPathUnits="userSpaceOnUse"
       id="clipPath28">
      <path
         d="M 48.371875,54.0125 H 848.81187 v 367 H 48.371875 Z"
         id="path28" />
    </clipPath>
    <clipPath
       clipPathUnits="userSpaceOnUse"
       id="clipPath30">
      <path
         d="M 48.371875,54.0125 H 848.81187 v 367 H 48.371875 Z"
         id="path30" />
    </clipPath>
    <clipPath
       clipPathUnits="userSpaceOnUse"
       id="clipPath32">
      <path
         d="M 48.371875,54.0125 H 848.81187 v 367 H 48.371875 Z"
         id="path32" />
    </clipPath>
    <clipPath
       clipPathUnits="userSpaceOnUse"
       id="clipPath34">
      <path
         d="M 48.371875,54.0125 H 848.81187 v 367 H 48.371875 Z"
         id="path34" />
    </clipPath>
    <clipPath
       clipPathUnits="userSpaceOnUse"
       id="clipPath36">
      <path
         d="M 48.371875,54.0125 H 848.81187 v 367 H 48.371875 Z"
         id="path36" />
    </clipPath>
    <clipPath
       clipPathUnits="userSpaceOnUse"
       id="clipPath38">
      <path
         d="M 48.371875,54.0125 H 848.81187 v 367 H 48.371875 Z"
         id="path38" />
    </clipPath>
    <clipPath
       clipPathUnits="userSpaceOnUse"
       id="clipPath40">
      <path
         d="M 48.371875,54.0125 H 848.81187 v 367 H 48.371875 Z"
         id="path40" />
    </clipPath>
    <clipPath
       clipPathUnits="userSpaceOnUse"
       id="clipPath42">
      <path
         d="M 48.371875,54.0125 H 848.81187 v 367 H 48.371875 Z"
         id="path42" />
    </clipPath>
    <clipPath
       clipPathUnits="userSpaceOnUse"
       id="clipPath44">
      <path
         d="M 48.371875,54.0125 H 848.81187 v 367 H 48.371875 Z"
         id="path44" />
    </clipPath>
    <clipPath
       clipPathUnits="userSpaceOnUse"
       id="clipPath46">
      <path
         d="M 48.371875,54.0125 H 848.81187 v 367 H 48.371875 Z"
         id="path46" />
    </clipPath>
    <clipPath
       clipPathUnits="userSpaceOnUse"
       id="clipPath48">
      <path
         d="M 48.371875,54.0125 H 848.81187 v 367 H 48.371875 Z"
         id="path48" />
    </clipPath>
    <clipPath
       clipPathUnits="userSpaceOnUse"
       id="clipPath50">
      <path
         d="M 48.371875,54.0125 H 848.81187 v 367 H 48.371875 Z"
         id="path50" />
    </clipPath>
    <clipPath
       clipPathUnits="userSpaceOnUse"
       id="clipPath52">
      <path
         d="M 48.371875,54.0125 H 848.81187 v 367 H 48.371875 Z"
         id="path52" />
    </clipPath>
    <clipPath
       clipPathUnits="userSpaceOnUse"
       id="clipPath54">
      <path
         d="M 48.371875,54.0125 H 848.81187 v 367 H 48.371875 Z"
         id="path54" />
    </clipPath>
    <clipPath
       clipPathUnits="userSpaceOnUse"
       id="clipPath56">
      <path
         d="M 48.371875,54.0125 H 848.81187 v 367 H 48.371875 Z"
         id="path56" />
    </clipPath>
    <clipPath
       clipPathUnits="userSpaceOnUse"
       id="clipPath58">
      <path
         d="M 48.371875,54.0125 H 848.81187 v 367 H 48.371875 Z"
         id="path58" />
    </clipPath>
    <clipPath
       clipPathUnits="userSpaceOnUse"
       id="clipPath60">
      <path
         d="M 48.371875,54.0125 H 848.81187 v 367 H 48.371875 Z"
         id="path60" />
    </clipPath>
    <clipPath
       clipPathUnits="userSpaceOnUse"
       id="clipPath62">
      <path
         d="M 48.371875,54.0125 H 848.81187 v 367 H 48.371875 Z"
         id="path62" />
    </clipPath>
    <clipPath
       clipPathUnits="userSpaceOnUse"
       id="clipPath64">
      <path
         d="M 48.371875,54.0125 H 848.81187 v 367 H 48.371875 Z"
         id="path64" />
    </clipPath>
    <clipPath
       clipPathUnits="userSpaceOnUse"
       id="clipPath66">
      <path
         d="M 48.371875,54.0125 H 848.81187 v 367 H 48.371875 Z"
         id="path66" />
    </clipPath>
    <clipPath
       clipPathUnits="userSpaceOnUse"
       id="clipPath68">
      <path
         d="M 48.371875,54.0125 H 848.81187 v 367 H 48.371875 Z"
         id="path68" />
    </clipPath>
    <clipPath
       clipPathUnits="userSpaceOnUse"
       id="clipPath70">
      <path
         d="M 48.371875,54.0125 H 848.81187 v 367 H 48.371875 Z"
         id="path70" />
    </clipPath>
    <clipPath
       clipPathUnits="userSpaceOnUse"
       id="clipPath72">
      <path
         d="M 48.371875,54.0125 H 848.81187 v 367 H 48.371875 Z"
         id="path72" />
    </clipPath>
    <clipPath
       clipPathUnits="userSpaceOnUse"
       id="clipPath74">
      <path
         d="M 48.371875,54.0125 H 848.81187 v 367 H 48.371875 Z"
         id="path74" />
    </clipPath>
    <clipPath
       clipPathUnits="userSpaceOnUse"
       id="clipPath76">
      <path
         d="M 48.371875,54.0125 H 848.81187 v 367 H 48.371875 Z"
         id="path76" />
    </clipPath>
    <clipPath
       clipPathUnits="userSpaceOnUse"
       id="clipPath78">
      <path
         d="M 48.371875,54.0125 H 848.81187 v 367 H 48.371875 Z"
         id="path78" />
    </clipPath>
    <clipPath
       clipPathUnits="userSpaceOnUse"
       id="clipPath80">
      <path
         d="M 48.371875,54.0125 H 848.81187 v 367 H 48.371875 Z"
         id="path80" />
    </clipPath>
    <clipPath
       clipPathUnits="userSpaceOnUse"
       id="clipPath82">
      <path
         d="M 48.371875,54.0125 H 848.81187 v 367 H 48.371875 Z"
         id="path82" />
    </clipPath>
    <clipPath
       clipPathUnits="userSpaceOnUse"
       id="clipPath84">
      <path
         d="M 48.371875,54.0125 H 848.81187 v 367 H 48.371875 Z"
         id="path84" />
    </clipPath>
    <clipPath
       clipPathUnits="userSpaceOnUse"
       id="clipPath86">
      <path
         d="M 48.371875,54.0125 H 848.81187 v 367 H 48.371875 Z"
         id="path86" />
    </clipPath>
    <clipPath
       clipPathUnits="userSpaceOnUse"
       id="clipPath88">
      <path
         d="M 48.371875,54.0125 H 848.81187 v 367 H 48.371875 Z"
         id="path88" />
    </clipPath>
    <clipPath
       clipPathUnits="userSpaceOnUse"
       id="clipPath90">
      <path
         d="M 48.371875,54.0125 H 848.81187 v 367 H 48.371875 Z"
         id="path90" />
    </clipPath>
    <clipPath
       clipPathUnits="userSpaceOnUse"
       id="clipPath92">
      <path
         d="M 48.371875,54.0125 H 848.81187 v 367 H 48.371875 Z"
         id="path92" />
    </clipPath>
    <clipPath
       clipPathUnits="userSpaceOnUse"
       id="clipPath94">
      <path
         d="M 48.371875,54.0125 H 848.81187 v 367 H 48.371875 Z"
         id="path94" />
    </clipPath>
    <clipPath
       clipPathUnits="userSpaceOnUse"
       id="clipPath96">
      <path
         d="M 48.371875,54.0125 H 848.81187 v 367 H 48.371875 Z"
         id="path96" />
    </clipPath>
    <clipPath
       clipPathUnits="userSpaceOnUse"
       id="clipPath98">
      <path
         d="M 48.371875,54.0125 H 848.81187 v 367 H 48.371875 Z"
         id="path98" />
    </clipPath>
    <clipPath
       clipPathUnits="userSpaceOnUse"
       id="clipPath100">
      <path
         d="M 48.371875,54.0125 H 848.81187 v 367 H 48.371875 Z"
         id="path100" />
    </clipPath>
    <clipPath
       clipPathUnits="userSpaceOnUse"
       id="clipPath102">
      <path
         d="M 48.371875,54.0125 H 848.81187 v 367 H 48.371875 Z"
         id="path102" />
    </clipPath>
    <clipPath
       clipPathUnits="userSpaceOnUse"
       id="clipPath104">
      <path
         d="M 48.371875,54.0125 H 848.81187 v 367 H 48.371875 Z"
         id="path104" />
    </clipPath>
    <clipPath
       clipPathUnits="userSpaceOnUse"
       id="clipPath106">
      <path
         d="M 48.371875,54.0125 H 848.81187 v 367 H 48.371875 Z"
         id="path106" />
    </clipPath>
    <clipPath
       clipPathUnits="userSpaceOnUse"
       id="clipPath108">
      <path
         d="M 48.371875,54.0125 H 848.81187 v 367 H 48.371875 Z"
         id="path108" />
    </clipPath>
    <clipPath
       clipPathUnits="userSpaceOnUse"
       id="clipPath110">
      <path
         d="M 48.371875,54.0125 H 848.81187 v 367 H 48.371875 Z"
         id="path110" />
    </clipPath>
    <clipPath
       clipPathUnits="userSpaceOnUse"
       id="clipPath112">
      <path
         d="M 48.371875,54.0125 H 848.81187 v 367 H 48.371875 Z"
         id="path112" />
    </clipPath>
    <clipPath
       clipPathUnits="userSpaceOnUse"
       id="clipPath114">
      <path
         d="M 48.371875,54.0125 H 848.81187 v 367 H 48.371875 Z"
         id="path114" />
    </clipPath>
    <clipPath
       clipPathUnits="userSpaceOnUse"
       id="clipPath116">
      <path
         d="M 48.371875,54.0125 H 848.81187 v 367 H 48.371875 Z"
         id="path116" />
    </clipPath>
    <clipPath
       clipPathUnits="userSpaceOnUse"
       id="clipPath118">
      <path
         d="M 48.371875,54.0125 H 848.81187 v 367 H 48.371875 Z"
         id="path118" />
    </clipPath>
    <clipPath
       clipPathUnits="userSpaceOnUse"
       id="clipPath120">
      <path
         d="M 48.371875,54.0125 H 848.81187 v 367 H 48.371875 Z"
         id="path120" />
    </clipPath>
    <clipPath
       clipPathUnits="userSpaceOnUse"
       id="clipPath122">
      <path
         d="M 48.371875,54.0125 H 848.81187 v 367 H 48.371875 Z"
         id="path122" />
    </clipPath>
    <clipPath
       clipPathUnits="userSpaceOnUse"
       id="clipPath124">
      <path
         d="M 48.371875,54.0125 H 848.81187 v 367 H 48.371875 Z"
         id="path124" />
    </clipPath>
    <clipPath
       clipPathUnits="userSpaceOnUse"
       id="clipPath126">
      <path
         d="M 48.371875,54.0125 H 848.81187 v 367 H 48.371875 Z"
         id="path126" />
    </clipPath>
    <clipPath
       clipPathUnits="userSpaceOnUse"
       id="clipPath128">
      <path
         d="M 48.371875,54.0125 H 848.81187 v 367 H 48.371875 Z"
         id="path128" />
    </clipPath>
    <clipPath
       clipPathUnits="userSpaceOnUse"
       id="clipPath130">
      <path
         d="M 48.371875,54.0125 H 848.81187 v 367 H 48.371875 Z"
         id="path130" />
    </clipPath>
    <clipPath
       clipPathUnits="userSpaceOnUse"
       id="clipPath138">
      <path
         d="M 48.371875,54.0125 H 848.81187 v 367 H 48.371875 Z"
         id="path138" />
    </clipPath>
    <clipPath
       clipPathUnits="userSpaceOnUse"
       id="clipPath141">
      <path
         d="M 48.371875,54.0125 H 848.81187 v 367 H 48.371875 Z"
         id="path141" />
    </clipPath>
    <clipPath
       clipPathUnits="userSpaceOnUse"
       id="clipPath144">
      <path
         d="M 48.371875,54.0125 H 848.81187 v 367 H 48.371875 Z"
         id="path144" />
    </clipPath>
    <clipPath
       clipPathUnits="userSpaceOnUse"
       id="clipPath147">
      <path
         d="M 48.371875,54.0125 H 848.81187 v 367 H 48.371875 Z"
         id="path147" />
    </clipPath>
    <clipPath
       clipPathUnits="userSpaceOnUse"
       id="clipPath150">
      <path
         d="M 48.371875,54.0125 H 848.81187 v 367 H 48.371875 Z"
         id="path150" />
    </clipPath>
    <clipPath
       clipPathUnits="userSpaceOnUse"
       id="clipPath153">
      <path
         d="M 48.371875,54.0125 H 848.81187 v 367 H 48.371875 Z"
         id="path153" />
    </clipPath>
    <clipPath
       clipPathUnits="userSpaceOnUse"
       id="clipPath156">
      <path
         d="M 48.371875,54.0125 H 848.81187 v 367 H 48.371875 Z"
         id="path156" />
    </clipPath>
    <clipPath
       clipPathUnits="userSpaceOnUse"
       id="clipPath159">
      <path
         d="M 48.371875,54.0125 H 848.81187 v 367 H 48.371875 Z"
         id="path159" />
    </clipPath>
  </defs>
  <g
     id="g1">
    <path
       id="path1"
       d="M 0,0 H 856.01188 V 428.2125 H 0 Z"
       style="fill:#ffffff;fill-opacity:1;fill-rule:nonzero;stroke:none"
       transform="matrix(1.3333333,0,0,-1.3333333,0,570.95)" />
    <path
       id="path2"
       d="M 48.371875,54.0125 H 848.81187 v 367 H 48.371875 Z"
       style="fill:#ffffff;fill-opacity:1;fill-rule:nonzero;stroke:none"
       transform="matrix(1.3333333,0,0,-1.3333333,0,570.95)" />
    <path
       id="path3"
       d="m 129.64732,54.0125 h 9.85157 v 349.52381 h -9.85157 z"
       style="fill:#ff6347;fill-opacity:0.8;fill-rule:nonzero;stroke:none"
       transform="matrix(1.3333333,0,0,-1.3333333,0,570.95)"
       clip-path="url(#clipPath4)" />
    <path
       id="path5"
       d="m 265.1064,54.0125 h 9.85157 v 207.51537 h -9.85157 z"
       style="fill:#ff6347;fill-opacity:0.8;fill-rule:nonzero;stroke:none"
       transform="matrix(1.3333333,0,0,-1.3333333,0,570.95)"
       clip-path="url(#clipPath6)" />
    <path
       id="path7"
       d="m 338.99317,54.0125 h 9.85157 v 122.54605 h -9.85157 z"
       style="fill:#ff6347;fill-opacity:0.8;fill-rule:nonzero;stroke:none"
       transform="matrix(1.3333333,0,0,-1.3333333,0,570.95)"
       clip-path="url(#clipPath8)" />
    <path
       id="path9"
       d="m 351.30763,54.0125 h 9.85157 v 101.31125 h -9.85157 z"
       style="fill:#ff6347;fill-opacity:0.8;fill-rule:nonzero;stroke:none"
       transform="matrix(1.3333333,0,0,-1.3333333,0,570.95)"
       clip-path="url(#clipPath10)" />
    <path
       id="path11"
       d="m 388.25101,54.0125 h 9.85157 v 167.1977 h -9.85157 z"
       style="fill:#ff6347;fill-opacity:0.8;fill-rule:nonzero;stroke:none"
       transform="matrix(1.3333333,0,0,-1.3333333,0,570.95)"
       clip-path="url(#clipPath12)" />
    <path
       id="path13"
       d="m 425.1944,54.0125 h 9.85157 v 166.12006 h -9.85157 z"
       style="fill:#ff6347;fill-opacity:0.8;fill-rule:nonzero;stroke:none"
       transform="matrix(1.3333333,0,0,-1.3333333,0,570.95)"
       clip-path="url(#clipPath14)" />
    <path
       id="path15"
       d="m 560.65348,54.0125 h 9.85156 v 137.11895 h -9.85156 z"
       style="fill:#ff6347;fill-opacity:0.8;fill-rule:nonzero;stroke:none"
       transform="matrix(1.3333333,0,0,-1.3333333,0,570.95)"
       clip-path="url(#clipPath16)" />
    <path
       id="path17"
       d="m 806.94271,54.0125 h 9.85157 v 101.88353 h -9.85157 z"
       style="fill:#ff6347;fill-opacity:0.8;fill-rule:nonzero;stroke:none"
       transform="matrix(1.3333333,0,0,-1.3333333,0,570.95)"
       clip-path="url(#clipPath18)" />
    <path
       id="path19"
       d="m 831.57163,54.0125 h 9.85157 v 135.84917 h -9.85157 z"
       style="fill:#ff6347;fill-opacity:0.8;fill-rule:nonzero;stroke:none"
       transform="matrix(1.3333333,0,0,-1.3333333,0,570.95)"
       clip-path="url(#clipPath20)" />
    <path
       id="path21"
       d="m 55.760552,54.0125 h 9.851569 v 18.961998 h -9.851569 z"
       style="fill:#add8e6;fill-opacity:0.8;fill-rule:nonzero;stroke:none"
       transform="matrix(1.3333333,0,0,-1.3333333,0,570.95)"
       clip-path="url(#clipPath22)" />
    <path
       id="path23"
       d="m 68.075013,54.0125 h 9.85157 v 25.305673 h -9.85157 z"
       style="fill:#add8e6;fill-opacity:0.8;fill-rule:nonzero;stroke:none"
       transform="matrix(1.3333333,0,0,-1.3333333,0,570.95)"
       clip-path="url(#clipPath24)" />
    <path
       id="path25"
       d="m 80.389475,54.0125 h 9.851569 v 51.77342 h -9.851569 z"
       style="fill:#add8e6;fill-opacity:0.8;fill-rule:nonzero;stroke:none"
       transform="matrix(1.3333333,0,0,-1.3333333,0,570.95)"
       clip-path="url(#clipPath26)" />
    <path
       id="path27"
       d="m 92.703937,54.0125 h 9.851573 v 35.209496 h -9.851573 z"
       style="fill:#add8e6;fill-opacity:0.8;fill-rule:nonzero;stroke:none"
       transform="matrix(1.3333333,0,0,-1.3333333,0,570.95)"
       clip-path="url(#clipPath28)" />
    <path
       id="path29"
       d="m 105.0184,54.0125 h 9.85157 v 40.739358 h -9.85157 z"
       style="fill:#add8e6;fill-opacity:0.8;fill-rule:nonzero;stroke:none"
       transform="matrix(1.3333333,0,0,-1.3333333,0,570.95)"
       clip-path="url(#clipPath30)" />
    <path
       id="path31"
       d="m 117.33286,54.0125 h 9.85157 v 43.556162 h -9.85157 z"
       style="fill:#add8e6;fill-opacity:0.8;fill-rule:nonzero;stroke:none"
       transform="matrix(1.3333333,0,0,-1.3333333,0,570.95)"
       clip-path="url(#clipPath32)" />
    <path
       id="path33"
       d="m 141.96178,54.0125 h 9.85157 v 32.08042 h -9.85157 z"
       style="fill:#add8e6;fill-opacity:0.8;fill-rule:nonzero;stroke:none"
       transform="matrix(1.3333333,0,0,-1.3333333,0,570.95)"
       clip-path="url(#clipPath34)" />
    <path
       id="path35"
       d="m 154.27624,54.0125 h 9.85157 v 61.70776 h -9.85157 z"
       style="fill:#add8e6;fill-opacity:0.8;fill-rule:nonzero;stroke:none"
       transform="matrix(1.3333333,0,0,-1.3333333,0,570.95)"
       clip-path="url(#clipPath36)" />
    <path
       id="path37"
       d="m 166.59071,54.0125 h 9.85156 v 36.379948 h -9.85156 z"
       style="fill:#add8e6;fill-opacity:0.8;fill-rule:nonzero;stroke:none"
       transform="matrix(1.3333333,0,0,-1.3333333,0,570.95)"
       clip-path="url(#clipPath38)" />
    <path
       id="path39"
       d="m 178.90517,54.0125 h 9.85157 v 68.42994 h -9.85157 z"
       style="fill:#add8e6;fill-opacity:0.8;fill-rule:nonzero;stroke:none"
       transform="matrix(1.3333333,0,0,-1.3333333,0,570.95)"
       clip-path="url(#clipPath40)" />
    <path
       id="path41"
       d="m 191.21963,54.0125 h 9.85157 v 29.261298 h -9.85157 z"
       style="fill:#add8e6;fill-opacity:0.8;fill-rule:nonzero;stroke:none"
       transform="matrix(1.3333333,0,0,-1.3333333,0,570.95)"
       clip-path="url(#clipPath42)" />
    <path
       id="path43"
       d="m 203.53409,54.0125 h 9.85157 v 89.53293 h -9.85157 z"
       style="fill:#add8e6;fill-opacity:0.8;fill-rule:nonzero;stroke:none"
       transform="matrix(1.3333333,0,0,-1.3333333,0,570.95)"
       clip-path="url(#clipPath44)" />
    <path
       id="path45"
       d="m 215.84855,54.0125 h 9.85157 v 29.932869 h -9.85157 z"
       style="fill:#add8e6;fill-opacity:0.8;fill-rule:nonzero;stroke:none"
       transform="matrix(1.3333333,0,0,-1.3333333,0,570.95)"
       clip-path="url(#clipPath46)" />
    <path
       id="path47"
       d="m 228.16301,54.0125 h 9.85157 v 33.290723 h -9.85157 z"
       style="fill:#add8e6;fill-opacity:0.8;fill-rule:nonzero;stroke:none"
       transform="matrix(1.3333333,0,0,-1.3333333,0,570.95)"
       clip-path="url(#clipPath48)" />
    <path
       id="path49"
       d="m 240.47747,54.0125 h 9.85157 v 55.26068 h -9.85157 z"
       style="fill:#add8e6;fill-opacity:0.8;fill-rule:nonzero;stroke:none"
       transform="matrix(1.3333333,0,0,-1.3333333,0,570.95)"
       clip-path="url(#clipPath50)" />
    <path
       id="path51"
       d="m 252.79194,54.0125 h 9.85157 v 33.962294 h -9.85157 z"
       style="fill:#add8e6;fill-opacity:0.8;fill-rule:nonzero;stroke:none"
       transform="matrix(1.3333333,0,0,-1.3333333,0,570.95)"
       clip-path="url(#clipPath52)" />
    <path
       id="path53"
       d="m 277.42086,54.0125 h 9.85157 v 41.906017 h -9.85157 z"
       style="fill:#add8e6;fill-opacity:0.8;fill-rule:nonzero;stroke:none"
       transform="matrix(1.3333333,0,0,-1.3333333,0,570.95)"
       clip-path="url(#clipPath54)" />
    <path
       id="path55"
       d="m 289.73532,54.0125 h 9.85157 v 70.02297 h -9.85157 z"
       style="fill:#add8e6;fill-opacity:0.8;fill-rule:nonzero;stroke:none"
       transform="matrix(1.3333333,0,0,-1.3333333,0,570.95)"
       clip-path="url(#clipPath56)" />
    <path
       id="path57"
       d="m 302.04978,54.0125 h 9.85157 v 59.86574 h -9.85157 z"
       style="fill:#add8e6;fill-opacity:0.8;fill-rule:nonzero;stroke:none"
       transform="matrix(1.3333333,0,0,-1.3333333,0,570.95)"
       clip-path="url(#clipPath58)" />
    <path
       id="path59"
       d="m 314.36424,54.0125 h 9.85157 v 12.206787 h -9.85157 z"
       style="fill:#add8e6;fill-opacity:0.8;fill-rule:nonzero;stroke:none"
       transform="matrix(1.3333333,0,0,-1.3333333,0,570.95)"
       clip-path="url(#clipPath60)" />
    <path
       id="path61"
       d="m 326.67871,54.0125 h 9.85156 v 45.762752 h -9.85156 z"
       style="fill:#add8e6;fill-opacity:0.8;fill-rule:nonzero;stroke:none"
       transform="matrix(1.3333333,0,0,-1.3333333,0,570.95)"
       clip-path="url(#clipPath62)" />
    <path
       id="path63"
       d="m 363.62209,54.0125 h 9.85157 v 42.500836 h -9.85157 z"
       style="fill:#add8e6;fill-opacity:0.8;fill-rule:nonzero;stroke:none"
       transform="matrix(1.3333333,0,0,-1.3333333,0,570.95)"
       clip-path="url(#clipPath64)" />
    <path
       id="path65"
       d="m 375.93655,54.0125 h 9.85157 v 51.67405 h -9.85157 z"
       style="fill:#add8e6;fill-opacity:0.8;fill-rule:nonzero;stroke:none"
       transform="matrix(1.3333333,0,0,-1.3333333,0,570.95)"
       clip-path="url(#clipPath66)" />
    <path
       id="path67"
       d="m 400.56547,54.0125 h 9.85157 v 22.981005 h -9.85157 z"
       style="fill:#add8e6;fill-opacity:0.8;fill-rule:nonzero;stroke:none"
       transform="matrix(1.3333333,0,0,-1.3333333,0,570.95)"
       clip-path="url(#clipPath68)" />
    <path
       id="path69"
       d="m 412.87994,54.0125 h 9.85157 v 43.878561 h -9.85157 z"
       style="fill:#add8e6;fill-opacity:0.8;fill-rule:nonzero;stroke:none"
       transform="matrix(1.3333333,0,0,-1.3333333,0,570.95)"
       clip-path="url(#clipPath70)" />
    <path
       id="path71"
       d="m 437.50886,54.0125 h 9.85157 v 47.89259 h -9.85157 z"
       style="fill:#add8e6;fill-opacity:0.8;fill-rule:nonzero;stroke:none"
       transform="matrix(1.3333333,0,0,-1.3333333,0,570.95)"
       clip-path="url(#clipPath72)" />
    <path
       id="path73"
       d="m 449.82332,54.0125 h 9.85157 v 23.121222 h -9.85157 z"
       style="fill:#add8e6;fill-opacity:0.8;fill-rule:nonzero;stroke:none"
       transform="matrix(1.3333333,0,0,-1.3333333,0,570.95)"
       clip-path="url(#clipPath74)" />
    <path
       id="path75"
       d="m 462.13778,54.0125 h 9.85157 v 40.985005 h -9.85157 z"
       style="fill:#add8e6;fill-opacity:0.8;fill-rule:nonzero;stroke:none"
       transform="matrix(1.3333333,0,0,-1.3333333,0,570.95)"
       clip-path="url(#clipPath76)" />
    <path
       id="path77"
       d="m 474.45224,54.0125 h 9.85157 V 94.537 h -9.85157 z"
       style="fill:#add8e6;fill-opacity:0.8;fill-rule:nonzero;stroke:none"
       transform="matrix(1.3333333,0,0,-1.3333333,0,570.95)"
       clip-path="url(#clipPath78)" />
    <path
       id="path79"
       d="m 486.76671,54.0125 h 9.85156 v 21.10651 h -9.85156 z"
       style="fill:#add8e6;fill-opacity:0.8;fill-rule:nonzero;stroke:none"
       transform="matrix(1.3333333,0,0,-1.3333333,0,570.95)"
       clip-path="url(#clipPath80)" />
    <path
       id="path81"
       d="m 499.08117,54.0125 h 9.85157 v 39.238921 h -9.85157 z"
       style="fill:#add8e6;fill-opacity:0.8;fill-rule:nonzero;stroke:none"
       transform="matrix(1.3333333,0,0,-1.3333333,0,570.95)"
       clip-path="url(#clipPath82)" />
    <path
       id="path83"
       d="m 511.39563,54.0125 h 9.85157 v 51.46887 h -9.85157 z"
       style="fill:#add8e6;fill-opacity:0.8;fill-rule:nonzero;stroke:none"
       transform="matrix(1.3333333,0,0,-1.3333333,0,570.95)"
       clip-path="url(#clipPath84)" />
    <path
       id="path85"
       d="m 523.71009,54.0125 h 9.85157 v 34.92168 h -9.85157 z"
       style="fill:#add8e6;fill-opacity:0.8;fill-rule:nonzero;stroke:none"
       transform="matrix(1.3333333,0,0,-1.3333333,0,570.95)"
       clip-path="url(#clipPath86)" />
    <path
       id="path87"
       d="m 536.02455,54.0125 h 9.85157 v 43.138546 h -9.85157 z"
       style="fill:#add8e6;fill-opacity:0.8;fill-rule:nonzero;stroke:none"
       transform="matrix(1.3333333,0,0,-1.3333333,0,570.95)"
       clip-path="url(#clipPath88)" />
    <path
       id="path89"
       d="m 548.33901,54.0125 h 9.85157 v 46.81243 h -9.85157 z"
       style="fill:#add8e6;fill-opacity:0.8;fill-rule:nonzero;stroke:none"
       transform="matrix(1.3333333,0,0,-1.3333333,0,570.95)"
       clip-path="url(#clipPath90)" />
    <path
       id="path91"
       d="m 572.96794,54.0125 h 9.85157 v 53.13527 h -9.85157 z"
       style="fill:#add8e6;fill-opacity:0.8;fill-rule:nonzero;stroke:none"
       transform="matrix(1.3333333,0,0,-1.3333333,0,570.95)"
       clip-path="url(#clipPath92)" />
    <path
       id="path93"
       d="m 585.2824,54.0125 h 9.85157 v 22.781747 h -9.85157 z"
       style="fill:#add8e6;fill-opacity:0.8;fill-rule:nonzero;stroke:none"
       transform="matrix(1.3333333,0,0,-1.3333333,0,570.95)"
       clip-path="url(#clipPath94)" />
    <path
       id="path95"
       d="m 597.59686,54.0125 h 9.85157 v 76.90445 h -9.85157 z"
       style="fill:#add8e6;fill-opacity:0.8;fill-rule:nonzero;stroke:none"
       transform="matrix(1.3333333,0,0,-1.3333333,0,570.95)"
       clip-path="url(#clipPath96)" />
    <path
       id="path97"
       d="m 609.91132,54.0125 h 9.85157 v 86.58578 h -9.85157 z"
       style="fill:#add8e6;fill-opacity:0.8;fill-rule:nonzero;stroke:none"
       transform="matrix(1.3333333,0,0,-1.3333333,0,570.95)"
       clip-path="url(#clipPath98)" />
    <path
       id="path99"
       d="m 622.22578,54.0125 h 9.85157 v 44.323672 h -9.85157 z"
       style="fill:#add8e6;fill-opacity:0.8;fill-rule:nonzero;stroke:none"
       transform="matrix(1.3333333,0,0,-1.3333333,0,570.95)"
       clip-path="url(#clipPath100)" />
    <path
       id="path101"
       d="m 634.54024,54.0125 h 9.85157 v 22.161836 h -9.85157 z"
       style="fill:#add8e6;fill-opacity:0.8;fill-rule:nonzero;stroke:none"
       transform="matrix(1.3333333,0,0,-1.3333333,0,570.95)"
       clip-path="url(#clipPath102)" />
    <path
       id="path103"
       d="m 646.85471,54.0125 h 9.85156 V 94.537 h -9.85156 z"
       style="fill:#add8e6;fill-opacity:0.8;fill-rule:nonzero;stroke:none"
       transform="matrix(1.3333333,0,0,-1.3333333,0,570.95)"
       clip-path="url(#clipPath104)" />
    <path
       id="path105"
       d="m 659.16917,54.0125 h 9.85157 v 76.90445 h -9.85157 z"
       style="fill:#add8e6;fill-opacity:0.8;fill-rule:nonzero;stroke:none"
       transform="matrix(1.3333333,0,0,-1.3333333,0,570.95)"
       clip-path="url(#clipPath106)" />
    <path
       id="path107"
       d="m 671.48363,54.0125 h 9.85157 v 72.29939 h -9.85157 z"
       style="fill:#add8e6;fill-opacity:0.8;fill-rule:nonzero;stroke:none"
       transform="matrix(1.3333333,0,0,-1.3333333,0,570.95)"
       clip-path="url(#clipPath108)" />
    <path
       id="path109"
       d="m 683.79809,54.0125 h 9.85157 v 91.84746 h -9.85157 z"
       style="fill:#add8e6;fill-opacity:0.8;fill-rule:nonzero;stroke:none"
       transform="matrix(1.3333333,0,0,-1.3333333,0,570.95)"
       clip-path="url(#clipPath110)" />
    <path
       id="path111"
       d="m 696.11255,54.0125 h 9.85157 v 50.65563 h -9.85157 z"
       style="fill:#add8e6;fill-opacity:0.8;fill-rule:nonzero;stroke:none"
       transform="matrix(1.3333333,0,0,-1.3333333,0,570.95)"
       clip-path="url(#clipPath112)" />
    <path
       id="path113"
       d="m 708.42701,54.0125 h 9.85157 v 39.938709 h -9.85157 z"
       style="fill:#add8e6;fill-opacity:0.8;fill-rule:nonzero;stroke:none"
       transform="matrix(1.3333333,0,0,-1.3333333,0,570.95)"
       clip-path="url(#clipPath114)" />
    <path
       id="path115"
       d="m 720.74148,54.0125 h 9.85156 v 33.156409 h -9.85156 z"
       style="fill:#add8e6;fill-opacity:0.8;fill-rule:nonzero;stroke:none"
       transform="matrix(1.3333333,0,0,-1.3333333,0,570.95)"
       clip-path="url(#clipPath116)" />
    <path
       id="path117"
       d="m 733.05594,54.0125 h 9.85157 v 36.840454 h -9.85157 z"
       style="fill:#add8e6;fill-opacity:0.8;fill-rule:nonzero;stroke:none"
       transform="matrix(1.3333333,0,0,-1.3333333,0,570.95)"
       clip-path="url(#clipPath118)" />
    <path
       id="path119"
       d="m 745.3704,54.0125 h 9.85157 v 41.445511 h -9.85157 z"
       style="fill:#add8e6;fill-opacity:0.8;fill-rule:nonzero;stroke:none"
       transform="matrix(1.3333333,0,0,-1.3333333,0,570.95)"
       clip-path="url(#clipPath120)" />
    <path
       id="path121"
       d="m 757.68486,54.0125 h 9.85157 v 41.445511 h -9.85157 z"
       style="fill:#add8e6;fill-opacity:0.8;fill-rule:nonzero;stroke:none"
       transform="matrix(1.3333333,0,0,-1.3333333,0,570.95)"
       clip-path="url(#clipPath122)" />
    <path
       id="path123"
       d="m 769.99932,54.0125 h 9.85157 v 24.035987 h -9.85157 z"
       style="fill:#add8e6;fill-opacity:0.8;fill-rule:nonzero;stroke:none"
       transform="matrix(1.3333333,0,0,-1.3333333,0,570.95)"
       clip-path="url(#clipPath124)" />
    <path
       id="path125"
       d="m 782.31378,54.0125 h 9.85157 v 92.88292 h -9.85157 z"
       style="fill:#add8e6;fill-opacity:0.8;fill-rule:nonzero;stroke:none"
       transform="matrix(1.3333333,0,0,-1.3333333,0,570.95)"
       clip-path="url(#clipPath126)" />
    <path
       id="path127"
       d="m 794.62824,54.0125 h 9.85157 v 47.16797 h -9.85157 z"
       style="fill:#add8e6;fill-opacity:0.8;fill-rule:nonzero;stroke:none"
       transform="matrix(1.3333333,0,0,-1.3333333,0,570.95)"
       clip-path="url(#clipPath128)" />
    <path
       id="path129"
       d="m 819.25717,54.0125 h 9.85157 v 38.04251 h -9.85157 z"
       style="fill:#add8e6;fill-opacity:0.8;fill-rule:nonzero;stroke:none"
       transform="matrix(1.3333333,0,0,-1.3333333,0,570.95)"
       clip-path="url(#clipPath130)" />
    <path
       id="path131"
       d="m 171.51649,54.0125 v -3.5"
       style="fill:#000000;fill-opacity:1;fill-rule:nonzero;stroke:#000000;stroke-width:0.8;stroke-linecap:butt;stroke-linejoin:round;stroke-miterlimit:10;stroke-dasharray:none;stroke-opacity:1"
       transform="matrix(1.3333333,0,0,-1.3333333,0,570.95)" />
    <text
       id="text131"
       xml:space="preserve"
       transform="matrix(1.3333333,0,0,1.3333333,214.27199,525.49583)"><tspan
         id="tspan131"
         style="font-variant:normal;font-weight:normal;font-size:17px;font-family:'DejaVu Sans';writing-mode:lr-tb;fill:#000000;fill-opacity:1;fill-rule:nonzero;stroke:none"
         x="0"
         y="0">10</tspan></text>
    <path
       id="path132"
       d="m 294.66111,54.0125 v -3.5"
       style="fill:#000000;fill-opacity:1;fill-rule:nonzero;stroke:#000000;stroke-width:0.8;stroke-linecap:butt;stroke-linejoin:round;stroke-miterlimit:10;stroke-dasharray:none;stroke-opacity:1"
       transform="matrix(1.3333333,0,0,-1.3333333,0,570.95)" />
    <text
       id="text132"
       xml:space="preserve"
       transform="matrix(1.3333333,0,0,1.3333333,378.46481,525.49583)"><tspan
         id="tspan132"
         style="font-variant:normal;font-weight:normal;font-size:17px;font-family:'DejaVu Sans';writing-mode:lr-tb;fill:#000000;fill-opacity:1;fill-rule:nonzero;stroke:none"
         x="0"
         y="0">20</tspan></text>
    <path
       id="path133"
       d="m 417.80572,54.0125 v -3.5"
       style="fill:#000000;fill-opacity:1;fill-rule:nonzero;stroke:#000000;stroke-width:0.8;stroke-linecap:butt;stroke-linejoin:round;stroke-miterlimit:10;stroke-dasharray:none;stroke-opacity:1"
       transform="matrix(1.3333333,0,0,-1.3333333,0,570.95)" />
    <text
       id="text133"
       xml:space="preserve"
       transform="matrix(1.3333333,0,0,1.3333333,542.65763,525.49583)"><tspan
         id="tspan133"
         style="font-variant:normal;font-weight:normal;font-size:17px;font-family:'DejaVu Sans';writing-mode:lr-tb;fill:#000000;fill-opacity:1;fill-rule:nonzero;stroke:none"
         x="0"
         y="0">30</tspan></text>
    <path
       id="path134"
       d="m 540.95034,54.0125 v -3.5"
       style="fill:#000000;fill-opacity:1;fill-rule:nonzero;stroke:#000000;stroke-width:0.8;stroke-linecap:butt;stroke-linejoin:round;stroke-miterlimit:10;stroke-dasharray:none;stroke-opacity:1"
       transform="matrix(1.3333333,0,0,-1.3333333,0,570.95)" />
    <text
       id="text134"
       xml:space="preserve"
       transform="matrix(1.3333333,0,0,1.3333333,706.85045,525.49583)"><tspan
         id="tspan134"
         style="font-variant:normal;font-weight:normal;font-size:17px;font-family:'DejaVu Sans';writing-mode:lr-tb;fill:#000000;fill-opacity:1;fill-rule:nonzero;stroke:none"
         x="0"
         y="0">40</tspan></text>
    <path
       id="path135"
       d="m 664.09495,54.0125 v -3.5"
       style="fill:#000000;fill-opacity:1;fill-rule:nonzero;stroke:#000000;stroke-width:0.8;stroke-linecap:butt;stroke-linejoin:round;stroke-miterlimit:10;stroke-dasharray:none;stroke-opacity:1"
       transform="matrix(1.3333333,0,0,-1.3333333,0,570.95)" />
    <text
       id="text135"
       xml:space="preserve"
       transform="matrix(1.3333333,0,0,1.3333333,871.04327,525.49583)"><tspan
         id="tspan135"
         style="font-variant:normal;font-weight:normal;font-size:17px;font-family:'DejaVu Sans';writing-mode:lr-tb;fill:#000000;fill-opacity:1;fill-rule:nonzero;stroke:none"
         x="0"
         y="0">50</tspan></text>
    <path
       id="path136"
       d="m 787.23957,54.0125 v -3.5"
       style="fill:#000000;fill-opacity:1;fill-rule:nonzero;stroke:#000000;stroke-width:0.8;stroke-linecap:butt;stroke-linejoin:round;stroke-miterlimit:10;stroke-dasharray:none;stroke-opacity:1"
       transform="matrix(1.3333333,0,0,-1.3333333,0,570.95)" />
    <text
       id="text136"
       xml:space="preserve"
       transform="matrix(1.3333333,0,0,1.3333333,1035.2361,525.49583)"><tspan
         id="tspan136"
         style="font-variant:normal;font-weight:normal;font-size:17px;font-family:'DejaVu Sans';writing-mode:lr-tb;fill:#000000;fill-opacity:1;fill-rule:nonzero;stroke:none"
         x="0"
         y="0">60</tspan></text>
    <text
       id="text137"
       xml:space="preserve"
       transform="matrix(1.3333333,0,0,1.3333333,535.96625,555.80833)"><tspan
         id="tspan137"
         style="font-variant:normal;font-weight:normal;font-size:20px;font-family:'DejaVu Sans';writing-mode:lr-tb;fill:#000000;fill-opacity:1;fill-rule:nonzero;stroke:none"
         x="0"
         y="0">Expert ID</tspan></text>
    <path
       id="path137"
       d="M 48.371875,54.0125 H 848.81187"
       style="fill:none;stroke:#b0b0b0;stroke-width:0.8;stroke-linecap:butt;stroke-linejoin:round;stroke-miterlimit:10;stroke-dasharray:2.96, 1.28;stroke-dashoffset:0;stroke-opacity:0.6"
       transform="matrix(1.3333333,0,0,-1.3333333,0,570.95)"
       clip-path="url(#clipPath138)" />
    <path
       id="path139"
       d="m 48.371875,54.0125 h -3.5"
       style="fill:#000000;fill-opacity:1;fill-rule:nonzero;stroke:#000000;stroke-width:0.8;stroke-linecap:butt;stroke-linejoin:round;stroke-miterlimit:10;stroke-dasharray:none;stroke-opacity:1"
       transform="matrix(1.3333333,0,0,-1.3333333,0,570.95)" />
    <text
       id="text139"
       xml:space="preserve"
       transform="matrix(1.3333333,0,0,1.3333333,40.745833,507.54792)"><tspan
         id="tspan139"
         style="font-variant:normal;font-weight:normal;font-size:17px;font-family:'DejaVu Sans';writing-mode:lr-tb;fill:#000000;fill-opacity:1;fill-rule:nonzero;stroke:none"
         x="0"
         y="0">0</tspan></text>
    <path
       id="path140"
       d="M 48.371875,102.3656 H 848.81187"
       style="fill:none;stroke:#b0b0b0;stroke-width:0.8;stroke-linecap:butt;stroke-linejoin:round;stroke-miterlimit:10;stroke-dasharray:2.96, 1.28;stroke-dashoffset:0;stroke-opacity:0.6"
       transform="matrix(1.3333333,0,0,-1.3333333,0,570.95)"
       clip-path="url(#clipPath141)" />
    <path
       id="path142"
       d="m 48.371875,102.3656 h -3.5"
       style="fill:#000000;fill-opacity:1;fill-rule:nonzero;stroke:#000000;stroke-width:0.8;stroke-linecap:butt;stroke-linejoin:round;stroke-miterlimit:10;stroke-dasharray:none;stroke-opacity:1"
       transform="matrix(1.3333333,0,0,-1.3333333,0,570.95)" />
    <text
       id="text142"
       xml:space="preserve"
       transform="matrix(1.3333333,0,0,1.3333333,40.745833,443.07712)"><tspan
         id="tspan142"
         style="font-variant:normal;font-weight:normal;font-size:17px;font-family:'DejaVu Sans';writing-mode:lr-tb;fill:#000000;fill-opacity:1;fill-rule:nonzero;stroke:none"
         x="0"
         y="0">1</tspan></text>
    <path
       id="path143"
       d="M 48.371875,150.71869 H 848.81187"
       style="fill:none;stroke:#b0b0b0;stroke-width:0.8;stroke-linecap:butt;stroke-linejoin:round;stroke-miterlimit:10;stroke-dasharray:2.96, 1.28;stroke-dashoffset:0;stroke-opacity:0.6"
       transform="matrix(1.3333333,0,0,-1.3333333,0,570.95)"
       clip-path="url(#clipPath144)" />
    <path
       id="path145"
       d="m 48.371875,150.71869 h -3.5"
       style="fill:#000000;fill-opacity:1;fill-rule:nonzero;stroke:#000000;stroke-width:0.8;stroke-linecap:butt;stroke-linejoin:round;stroke-miterlimit:10;stroke-dasharray:none;stroke-opacity:1"
       transform="matrix(1.3333333,0,0,-1.3333333,0,570.95)" />
    <text
       id="text145"
       xml:space="preserve"
       transform="matrix(1.3333333,0,0,1.3333333,40.745833,378.60633)"><tspan
         id="tspan145"
         style="font-variant:normal;font-weight:normal;font-size:17px;font-family:'DejaVu Sans';writing-mode:lr-tb;fill:#000000;fill-opacity:1;fill-rule:nonzero;stroke:none"
         x="0"
         y="0">2</tspan></text>
    <path
       id="path146"
       d="M 48.371875,199.07179 H 848.81187"
       style="fill:none;stroke:#b0b0b0;stroke-width:0.8;stroke-linecap:butt;stroke-linejoin:round;stroke-miterlimit:10;stroke-dasharray:2.96, 1.28;stroke-dashoffset:0;stroke-opacity:0.6"
       transform="matrix(1.3333333,0,0,-1.3333333,0,570.95)"
       clip-path="url(#clipPath147)" />
    <path
       id="path148"
       d="m 48.371875,199.07179 h -3.5"
       style="fill:#000000;fill-opacity:1;fill-rule:nonzero;stroke:#000000;stroke-width:0.8;stroke-linecap:butt;stroke-linejoin:round;stroke-miterlimit:10;stroke-dasharray:none;stroke-opacity:1"
       transform="matrix(1.3333333,0,0,-1.3333333,0,570.95)" />
    <text
       id="text148"
       xml:space="preserve"
       transform="matrix(1.3333333,0,0,1.3333333,40.745833,314.13553)"><tspan
         id="tspan148"
         style="font-variant:normal;font-weight:normal;font-size:17px;font-family:'DejaVu Sans';writing-mode:lr-tb;fill:#000000;fill-opacity:1;fill-rule:nonzero;stroke:none"
         x="0"
         y="0">3</tspan></text>
    <path
       id="path149"
       d="M 48.371875,247.42488 H 848.81187"
       style="fill:none;stroke:#b0b0b0;stroke-width:0.8;stroke-linecap:butt;stroke-linejoin:round;stroke-miterlimit:10;stroke-dasharray:2.96, 1.28;stroke-dashoffset:0;stroke-opacity:0.6"
       transform="matrix(1.3333333,0,0,-1.3333333,0,570.95)"
       clip-path="url(#clipPath150)" />
    <path
       id="path151"
       d="m 48.371875,247.42488 h -3.5"
       style="fill:#000000;fill-opacity:1;fill-rule:nonzero;stroke:#000000;stroke-width:0.8;stroke-linecap:butt;stroke-linejoin:round;stroke-miterlimit:10;stroke-dasharray:none;stroke-opacity:1"
       transform="matrix(1.3333333,0,0,-1.3333333,0,570.95)" />
    <text
       id="text151"
       xml:space="preserve"
       transform="matrix(1.3333333,0,0,1.3333333,40.745833,249.66474)"><tspan
         id="tspan151"
         style="font-variant:normal;font-weight:normal;font-size:17px;font-family:'DejaVu Sans';writing-mode:lr-tb;fill:#000000;fill-opacity:1;fill-rule:nonzero;stroke:none"
         x="0"
         y="0">4</tspan></text>
    <path
       id="path152"
       d="M 48.371875,295.77798 H 848.81187"
       style="fill:none;stroke:#b0b0b0;stroke-width:0.8;stroke-linecap:butt;stroke-linejoin:round;stroke-miterlimit:10;stroke-dasharray:2.96, 1.28;stroke-dashoffset:0;stroke-opacity:0.6"
       transform="matrix(1.3333333,0,0,-1.3333333,0,570.95)"
       clip-path="url(#clipPath153)" />
    <path
       id="path154"
       d="m 48.371875,295.77798 h -3.5"
       style="fill:#000000;fill-opacity:1;fill-rule:nonzero;stroke:#000000;stroke-width:0.8;stroke-linecap:butt;stroke-linejoin:round;stroke-miterlimit:10;stroke-dasharray:none;stroke-opacity:1"
       transform="matrix(1.3333333,0,0,-1.3333333,0,570.95)" />
    <text
       id="text154"
       xml:space="preserve"
       transform="matrix(1.3333333,0,0,1.3333333,40.745833,185.19394)"><tspan
         id="tspan154"
         style="font-variant:normal;font-weight:normal;font-size:17px;font-family:'DejaVu Sans';writing-mode:lr-tb;fill:#000000;fill-opacity:1;fill-rule:nonzero;stroke:none"
         x="0"
         y="0">5</tspan></text>
    <path
       id="path155"
       d="M 48.371875,344.13108 H 848.81187"
       style="fill:none;stroke:#b0b0b0;stroke-width:0.8;stroke-linecap:butt;stroke-linejoin:round;stroke-miterlimit:10;stroke-dasharray:2.96, 1.28;stroke-dashoffset:0;stroke-opacity:0.6"
       transform="matrix(1.3333333,0,0,-1.3333333,0,570.95)"
       clip-path="url(#clipPath156)" />
    <path
       id="path157"
       d="m 48.371875,344.13108 h -3.5"
       style="fill:#000000;fill-opacity:1;fill-rule:nonzero;stroke:#000000;stroke-width:0.8;stroke-linecap:butt;stroke-linejoin:round;stroke-miterlimit:10;stroke-dasharray:none;stroke-opacity:1"
       transform="matrix(1.3333333,0,0,-1.3333333,0,570.95)" />
    <text
       id="text157"
       xml:space="preserve"
       transform="matrix(1.3333333,0,0,1.3333333,40.745833,120.72315)"><tspan
         id="tspan157"
         style="font-variant:normal;font-weight:normal;font-size:17px;font-family:'DejaVu Sans';writing-mode:lr-tb;fill:#000000;fill-opacity:1;fill-rule:nonzero;stroke:none"
         x="0"
         y="0">6</tspan></text>
    <path
       id="path158"
       d="M 48.371875,392.48417 H 848.81187"
       style="fill:none;stroke:#b0b0b0;stroke-width:0.8;stroke-linecap:butt;stroke-linejoin:round;stroke-miterlimit:10;stroke-dasharray:2.96, 1.28;stroke-dashoffset:0;stroke-opacity:0.6"
       transform="matrix(1.3333333,0,0,-1.3333333,0,570.95)"
       clip-path="url(#clipPath159)" />
    <path
       id="path160"
       d="m 48.371875,392.48417 h -3.5"
       style="fill:#000000;fill-opacity:1;fill-rule:nonzero;stroke:#000000;stroke-width:0.8;stroke-linecap:butt;stroke-linejoin:round;stroke-miterlimit:10;stroke-dasharray:none;stroke-opacity:1"
       transform="matrix(1.3333333,0,0,-1.3333333,0,570.95)" />
    <text
       id="text160"
       xml:space="preserve"
       transform="matrix(1.3333333,0,0,1.3333333,40.745833,56.252352)"><tspan
         id="tspan160"
         style="font-variant:normal;font-weight:normal;font-size:17px;font-family:'DejaVu Sans';writing-mode:lr-tb;fill:#000000;fill-opacity:1;fill-rule:nonzero;stroke:none"
         x="0"
         y="0">7</tspan></text>
    <text
       id="text161"
       xml:space="preserve"
       transform="matrix(0,-1.3333333,1.3333333,0,29.870833,366.08958)"><tspan
         id="tspan161"
         style="font-variant:normal;font-weight:normal;font-size:20px;font-family:'DejaVu Sans';writing-mode:lr-tb;fill:#000000;fill-opacity:1;fill-rule:nonzero;stroke:none"
         x="0"
         dx="0 0 0 -0.34375 0 0 0 0 0 0 0 0 -0.34375"
         y="0">Normalized Load</tspan></text>
    <path
       id="path161"
       d="m 48.371875,54.0125 v 367"
       style="fill:none;stroke:#000000;stroke-width:0.8;stroke-linecap:square;stroke-linejoin:miter;stroke-miterlimit:10;stroke-dasharray:none;stroke-opacity:1"
       transform="matrix(1.3333333,0,0,-1.3333333,0,570.95)" />
    <path
       id="path162"
       d="m 848.81187,54.0125 v 367"
       style="fill:none;stroke:#000000;stroke-width:0.8;stroke-linecap:square;stroke-linejoin:miter;stroke-miterlimit:10;stroke-dasharray:none;stroke-opacity:1"
       transform="matrix(1.3333333,0,0,-1.3333333,0,570.95)" />
    <path
       id="path163"
       d="M 48.371875,54.0125 H 848.81187"
       style="fill:none;stroke:#000000;stroke-width:0.8;stroke-linecap:square;stroke-linejoin:miter;stroke-miterlimit:10;stroke-dasharray:none;stroke-opacity:1"
       transform="matrix(1.3333333,0,0,-1.3333333,0,570.95)" />
    <path
       id="path164"
       d="M 48.371875,421.0125 H 848.81187"
       style="fill:none;stroke:#000000;stroke-width:0.8;stroke-linecap:square;stroke-linejoin:miter;stroke-miterlimit:10;stroke-dasharray:none;stroke-opacity:1"
       transform="matrix(1.3333333,0,0,-1.3333333,0,570.95)" />
    <path
       id="path165"
       d="m 473.52182,346.29312 h 345.28126 c 2.66666,0 4,1.33334 4,4 v 27.35938 c 0,2.66667 -1.33334,4 -4,4 H 473.52182 c -2.66666,0 -4,-1.33333 -4,-4 v -27.35938 c 0,-2.66666 1.33334,-4 4,-4 z"
       style="fill:#ffffff;fill-opacity:0.8;fill-rule:nonzero;stroke:#cccccc;stroke-width:1;stroke-linecap:butt;stroke-linejoin:miter;stroke-miterlimit:10;stroke-dasharray:none;stroke-opacity:0.8"
       transform="matrix(1.3333333,0,0,-1.3333333,0,570.95)" />
    <path
       id="path166"
       d="m 477.52182,358.44937 h 40 v 14 h -40 z"
       style="fill:#ff6347;fill-opacity:0.8;fill-rule:nonzero;stroke:none"
       transform="matrix(1.3333333,0,0,-1.3333333,0,570.95)" />
    <text
       id="text166"
       xml:space="preserve"
       transform="matrix(1.3333333,0,0,1.3333333,711.36243,93.0175)"><tspan
         id="tspan166"
         style="font-variant:normal;font-weight:normal;font-size:20px;font-family:'DejaVu Sans';writing-mode:lr-tb;fill:#000000;fill-opacity:1;fill-rule:nonzero;stroke:none"
         x="0"
         y="0">High-load</tspan></text>
    <path
       id="path167"
       d="m 669.47495,358.44937 h 40 v 14 h -40 z"
       style="fill:#add8e6;fill-opacity:0.8;fill-rule:nonzero;stroke:none"
       transform="matrix(1.3333333,0,0,-1.3333333,0,570.95)" />
    <text
       id="text167"
       xml:space="preserve"
       transform="matrix(1.3333333,0,0,1.3333333,967.29993,93.0175)"><tspan
         id="tspan167"
         style="font-variant:normal;font-weight:normal;font-size:20px;font-family:'DejaVu Sans';writing-mode:lr-tb;fill:#000000;fill-opacity:1;fill-rule:nonzero;stroke:none"
         x="0"
         dx="0 -0.34375"
         y="0">Low-load</tspan></text>
  </g>
</svg>
