<?xml version="1.0" encoding="UTF-8" standalone="no"?>
<svg
   xmlns:dc="http://purl.org/dc/elements/1.1/"
   xmlns:cc="http://creativecommons.org/ns#"
   xmlns:rdf="http://www.w3.org/1999/02/22-rdf-syntax-ns#"
   xmlns:svg="http://www.w3.org/2000/svg"
   xmlns="http://www.w3.org/2000/svg"
   viewBox="0 0 1152 576"
   height="576"
   width="1152"
   xml:space="preserve"
   id="svg2"
   version="1.1"><metadata
     id="metadata8"><rdf:RDF><cc:Work
         rdf:about=""><dc:format>image/svg+xml</dc:format><dc:type
           rdf:resource="http://purl.org/dc/dcmitype/StillImage" /></cc:Work></rdf:RDF></metadata><defs
     id="defs6"><clipPath
       id="clipPath22"
       clipPathUnits="userSpaceOnUse"><path
         id="path20"
         d="M 51.5,58.52 H 853.2 V 421.2 H 51.5 Z" /></clipPath><clipPath
       id="clipPath42"
       clipPathUnits="userSpaceOnUse"><path
         id="path40"
         d="M 51.5,58.52 H 853.2 V 421.2 H 51.5 Z" /></clipPath><clipPath
       id="clipPath62"
       clipPathUnits="userSpaceOnUse"><path
         id="path60"
         d="M 51.5,58.52 H 853.2 V 421.2 H 51.5 Z" /></clipPath><clipPath
       id="clipPath82"
       clipPathUnits="userSpaceOnUse"><path
         id="path80"
         d="M 51.5,58.52 H 853.2 V 421.2 H 51.5 Z" /></clipPath><clipPath
       id="clipPath102"
       clipPathUnits="userSpaceOnUse"><path
         id="path100"
         d="M 51.5,58.52 H 853.2 V 421.2 H 51.5 Z" /></clipPath><clipPath
       id="clipPath122"
       clipPathUnits="userSpaceOnUse"><path
         id="path120"
         d="M 51.5,58.52 H 853.2 V 421.2 H 51.5 Z" /></clipPath><clipPath
       id="clipPath142"
       clipPathUnits="userSpaceOnUse"><path
         id="path140"
         d="M 51.5,58.52 H 853.2 V 421.2 H 51.5 Z" /></clipPath><clipPath
       id="clipPath168"
       clipPathUnits="userSpaceOnUse"><path
         id="path166"
         d="M 51.5,58.52 H 853.2 V 421.2 H 51.5 Z" /></clipPath><clipPath
       id="clipPath188"
       clipPathUnits="userSpaceOnUse"><path
         id="path186"
         d="M 51.5,58.52 H 853.2 V 421.2 H 51.5 Z" /></clipPath><clipPath
       id="clipPath208"
       clipPathUnits="userSpaceOnUse"><path
         id="path206"
         d="M 51.5,58.52 H 853.2 V 421.2 H 51.5 Z" /></clipPath><clipPath
       id="clipPath228"
       clipPathUnits="userSpaceOnUse"><path
         id="path226"
         d="M 51.5,58.52 H 853.2 V 421.2 H 51.5 Z" /></clipPath><clipPath
       id="clipPath248"
       clipPathUnits="userSpaceOnUse"><path
         id="path246"
         d="M 51.5,58.52 H 853.2 V 421.2 H 51.5 Z" /></clipPath><clipPath
       id="clipPath268"
       clipPathUnits="userSpaceOnUse"><path
         id="path266"
         d="M 51.5,58.52 H 853.2 V 421.2 H 51.5 Z" /></clipPath><clipPath
       id="clipPath288"
       clipPathUnits="userSpaceOnUse"><path
         id="path286"
         d="M 51.5,58.52 H 853.2 V 421.2 H 51.5 Z" /></clipPath><clipPath
       id="clipPath308"
       clipPathUnits="userSpaceOnUse"><path
         id="path306"
         d="M 51.5,58.52 H 853.2 V 421.2 H 51.5 Z" /></clipPath><clipPath
       id="clipPath328"
       clipPathUnits="userSpaceOnUse"><path
         id="path326"
         d="M 51.5,58.52 H 853.2 V 421.2 H 51.5 Z" /></clipPath><clipPath
       id="clipPath354"
       clipPathUnits="userSpaceOnUse"><path
         id="path352"
         d="M 51.5,58.52 H 853.2 V 421.2 H 51.5 Z" /></clipPath><clipPath
       id="clipPath364"
       clipPathUnits="userSpaceOnUse"><path
         id="path362"
         d="M 51.5,58.52 H 853.2 V 421.2 H 51.5 Z" /></clipPath><clipPath
       id="clipPath374"
       clipPathUnits="userSpaceOnUse"><path
         id="path372"
         d="M 51.5,58.52 H 853.2 V 421.2 H 51.5 Z" /></clipPath><clipPath
       id="clipPath384"
       clipPathUnits="userSpaceOnUse"><path
         id="path382"
         d="M 51.5,58.52 H 853.2 V 421.2 H 51.5 Z" /></clipPath><clipPath
       id="clipPath394"
       clipPathUnits="userSpaceOnUse"><path
         id="path392"
         d="M 51.5,58.52 H 853.2 V 421.2 H 51.5 Z" /></clipPath><clipPath
       id="clipPath404"
       clipPathUnits="userSpaceOnUse"><path
         id="path402"
         d="M 51.5,58.52 H 853.2 V 421.2 H 51.5 Z" /></clipPath></defs><g
     transform="matrix(1.3333333,0,0,-1.3333333,0,576)"
     id="g10"><path
       id="path12"
       style="fill:#ffffff;fill-opacity:1;fill-rule:nonzero;stroke:none"
       d="M 0,0 H 864 V 432 H 0 Z" /><path
       id="path14"
       style="fill:#ffffff;fill-opacity:1;fill-rule:nonzero;stroke:none"
       d="M 51.5,58.52 H 853.2 V 421.2 H 51.5 Z" /><g
       id="g16"><g
         clip-path="url(#clipPath22)"
         id="g18"><path
           id="path24"
           style="fill:none;stroke:#b0b0b0;stroke-width:0.80000001;stroke-linecap:square;stroke-linejoin:round;stroke-miterlimit:10;stroke-dasharray:none;stroke-opacity:1"
           d="M 87.940909,58.52 V 421.2" /></g></g><g
       id="g26"><path
         id="path28"
         style="fill:#000000;fill-opacity:1;fill-rule:nonzero;stroke:#000000;stroke-width:0.80000001;stroke-linecap:butt;stroke-linejoin:round;stroke-miterlimit:10;stroke-dasharray:none;stroke-opacity:1"
         d="m 87.940909,58.52 v -3.5" /><g
         transform="translate(82.847159,39.36375)"
         id="g30"><text
           id="text34"
           style="font-variant:normal;font-weight:normal;font-size:16px;font-family:'DejaVu Sans';-inkscape-font-specification:DejaVuSans;writing-mode:lr-tb;fill:#000000;fill-opacity:1;fill-rule:nonzero;stroke:none"
           transform="scale(1,-1)"><tspan
             id="tspan32"
             y="0"
             x="0">0</tspan></text>
</g></g><g
       id="g36"><g
         clip-path="url(#clipPath42)"
         id="g38"><path
           id="path44"
           style="fill:none;stroke:#b0b0b0;stroke-width:0.80000001;stroke-linecap:square;stroke-linejoin:round;stroke-miterlimit:10;stroke-dasharray:none;stroke-opacity:1"
           d="M 203.62633,58.52 V 421.2" /></g></g><g
       id="g46"><path
         id="path48"
         style="fill:#000000;fill-opacity:1;fill-rule:nonzero;stroke:#000000;stroke-width:0.80000001;stroke-linecap:butt;stroke-linejoin:round;stroke-miterlimit:10;stroke-dasharray:none;stroke-opacity:1"
         d="m 203.62633,58.52 v -3.5" /><g
         transform="translate(193.43883,39.36375)"
         id="g50"><text
           id="text54"
           style="font-variant:normal;font-weight:normal;font-size:16px;font-family:'DejaVu Sans';-inkscape-font-specification:DejaVuSans;writing-mode:lr-tb;fill:#000000;fill-opacity:1;fill-rule:nonzero;stroke:none"
           transform="scale(1,-1)"><tspan
             id="tspan52"
             y="0"
             x="0 10.176">10</tspan></text>
</g></g><g
       id="g56"><g
         clip-path="url(#clipPath62)"
         id="g58"><path
           id="path64"
           style="fill:none;stroke:#b0b0b0;stroke-width:0.80000001;stroke-linecap:square;stroke-linejoin:round;stroke-miterlimit:10;stroke-dasharray:none;stroke-opacity:1"
           d="M 319.31176,58.52 V 421.2" /></g></g><g
       id="g66"><path
         id="path68"
         style="fill:#000000;fill-opacity:1;fill-rule:nonzero;stroke:#000000;stroke-width:0.80000001;stroke-linecap:butt;stroke-linejoin:round;stroke-miterlimit:10;stroke-dasharray:none;stroke-opacity:1"
         d="m 319.31176,58.52 v -3.5" /><g
         transform="translate(309.12426,39.36375)"
         id="g70"><text
           id="text74"
           style="font-variant:normal;font-weight:normal;font-size:16px;font-family:'DejaVu Sans';-inkscape-font-specification:DejaVuSans;writing-mode:lr-tb;fill:#000000;fill-opacity:1;fill-rule:nonzero;stroke:none"
           transform="scale(1,-1)"><tspan
             id="tspan72"
             y="0"
             x="0 10.176">20</tspan></text>
</g></g><g
       id="g76"><g
         clip-path="url(#clipPath82)"
         id="g78"><path
           id="path84"
           style="fill:none;stroke:#b0b0b0;stroke-width:0.80000001;stroke-linecap:square;stroke-linejoin:round;stroke-miterlimit:10;stroke-dasharray:none;stroke-opacity:1"
           d="M 434.99719,58.52 V 421.2" /></g></g><g
       id="g86"><path
         id="path88"
         style="fill:#000000;fill-opacity:1;fill-rule:nonzero;stroke:#000000;stroke-width:0.80000001;stroke-linecap:butt;stroke-linejoin:round;stroke-miterlimit:10;stroke-dasharray:none;stroke-opacity:1"
         d="m 434.99719,58.52 v -3.5" /><g
         transform="translate(424.80969,39.36375)"
         id="g90"><text
           id="text94"
           style="font-variant:normal;font-weight:normal;font-size:16px;font-family:'DejaVu Sans';-inkscape-font-specification:DejaVuSans;writing-mode:lr-tb;fill:#000000;fill-opacity:1;fill-rule:nonzero;stroke:none"
           transform="scale(1,-1)"><tspan
             id="tspan92"
             y="0"
             x="0 10.176">30</tspan></text>
</g></g><g
       id="g96"><g
         clip-path="url(#clipPath102)"
         id="g98"><path
           id="path104"
           style="fill:none;stroke:#b0b0b0;stroke-width:0.80000001;stroke-linecap:square;stroke-linejoin:round;stroke-miterlimit:10;stroke-dasharray:none;stroke-opacity:1"
           d="M 550.68261,58.52 V 421.2" /></g></g><g
       id="g106"><path
         id="path108"
         style="fill:#000000;fill-opacity:1;fill-rule:nonzero;stroke:#000000;stroke-width:0.80000001;stroke-linecap:butt;stroke-linejoin:round;stroke-miterlimit:10;stroke-dasharray:none;stroke-opacity:1"
         d="m 550.68261,58.52 v -3.5" /><g
         transform="translate(540.49511,39.36375)"
         id="g110"><text
           id="text114"
           style="font-variant:normal;font-weight:normal;font-size:16px;font-family:'DejaVu Sans';-inkscape-font-specification:DejaVuSans;writing-mode:lr-tb;fill:#000000;fill-opacity:1;fill-rule:nonzero;stroke:none"
           transform="scale(1,-1)"><tspan
             id="tspan112"
             y="0"
             x="0 10.176">40</tspan></text>
</g></g><g
       id="g116"><g
         clip-path="url(#clipPath122)"
         id="g118"><path
           id="path124"
           style="fill:none;stroke:#b0b0b0;stroke-width:0.80000001;stroke-linecap:square;stroke-linejoin:round;stroke-miterlimit:10;stroke-dasharray:none;stroke-opacity:1"
           d="M 666.36804,58.52 V 421.2" /></g></g><g
       id="g126"><path
         id="path128"
         style="fill:#000000;fill-opacity:1;fill-rule:nonzero;stroke:#000000;stroke-width:0.80000001;stroke-linecap:butt;stroke-linejoin:round;stroke-miterlimit:10;stroke-dasharray:none;stroke-opacity:1"
         d="m 666.36804,58.52 v -3.5" /><g
         transform="translate(656.18054,39.36375)"
         id="g130"><text
           id="text134"
           style="font-variant:normal;font-weight:normal;font-size:16px;font-family:'DejaVu Sans';-inkscape-font-specification:DejaVuSans;writing-mode:lr-tb;fill:#000000;fill-opacity:1;fill-rule:nonzero;stroke:none"
           transform="scale(1,-1)"><tspan
             id="tspan132"
             y="0"
             x="0 10.176">50</tspan></text>
</g></g><g
       id="g136"><g
         clip-path="url(#clipPath142)"
         id="g138"><path
           id="path144"
           style="fill:none;stroke:#b0b0b0;stroke-width:0.80000001;stroke-linecap:square;stroke-linejoin:round;stroke-miterlimit:10;stroke-dasharray:none;stroke-opacity:1"
           d="M 782.05346,58.52 V 421.2" /></g></g><g
       id="g146"><path
         id="path148"
         style="fill:#000000;fill-opacity:1;fill-rule:nonzero;stroke:#000000;stroke-width:0.80000001;stroke-linecap:butt;stroke-linejoin:round;stroke-miterlimit:10;stroke-dasharray:none;stroke-opacity:1"
         d="m 782.05346,58.52 v -3.5" /><g
         transform="translate(771.86596,39.36375)"
         id="g150"><text
           id="text154"
           style="font-variant:normal;font-weight:normal;font-size:16px;font-family:'DejaVu Sans';-inkscape-font-specification:DejaVuSans;writing-mode:lr-tb;fill:#000000;fill-opacity:1;fill-rule:nonzero;stroke:none"
           transform="scale(1,-1)"><tspan
             id="tspan152"
             y="0"
             x="0 10.176">60</tspan></text>
</g><g
         transform="translate(405.73281,16.8325)"
         id="g156"><text
           id="text160"
           style="font-variant:normal;font-weight:normal;font-size:20px;font-family:'DejaVu Sans';-inkscape-font-specification:DejaVuSans;writing-mode:lr-tb;fill:#000000;fill-opacity:1;fill-rule:nonzero;stroke:none"
           transform="scale(1,-1)"><tspan
             id="tspan158"
             y="0"
             x="0 12.64 24.48 37.18 49.48 57.700001 65.540001 71.900002 77.800003">Expert ID</tspan></text>
</g></g><g
       id="g162"><g
         clip-path="url(#clipPath168)"
         id="g164"><path
           id="path170"
           style="fill:none;stroke:#b0b0b0;stroke-width:0.80000001;stroke-linecap:square;stroke-linejoin:round;stroke-miterlimit:10;stroke-dasharray:none;stroke-opacity:1"
           d="M 51.5,69.797678 H 853.2" /></g></g><g
       id="g172"><path
         id="path174"
         style="fill:#000000;fill-opacity:1;fill-rule:nonzero;stroke:#000000;stroke-width:0.80000001;stroke-linecap:butt;stroke-linejoin:round;stroke-miterlimit:10;stroke-dasharray:none;stroke-opacity:1"
         d="M 51.5,69.797678 H 48" /><g
         transform="translate(34.953125,64.102365)"
         id="g176"><text
           id="text180"
           style="font-variant:normal;font-weight:normal;font-size:15px;font-family:'DejaVu Sans';-inkscape-font-specification:DejaVuSans;writing-mode:lr-tb;fill:#000000;fill-opacity:1;fill-rule:nonzero;stroke:none"
           transform="scale(1,-1)"><tspan
             id="tspan178"
             y="0"
             x="0">0</tspan></text>
</g></g><g
       id="g182"><g
         clip-path="url(#clipPath188)"
         id="g184"><path
           id="path190"
           style="fill:none;stroke:#b0b0b0;stroke-width:0.80000001;stroke-linecap:square;stroke-linejoin:round;stroke-miterlimit:10;stroke-dasharray:none;stroke-opacity:1"
           d="M 51.5,112.67631 H 853.2" /></g></g><g
       id="g192"><path
         id="path194"
         style="fill:#000000;fill-opacity:1;fill-rule:nonzero;stroke:#000000;stroke-width:0.80000001;stroke-linecap:butt;stroke-linejoin:round;stroke-miterlimit:10;stroke-dasharray:none;stroke-opacity:1"
         d="M 51.5,112.67631 H 48" /><g
         transform="translate(34.953125,106.981)"
         id="g196"><text
           id="text200"
           style="font-variant:normal;font-weight:normal;font-size:15px;font-family:'DejaVu Sans';-inkscape-font-specification:DejaVuSans;writing-mode:lr-tb;fill:#000000;fill-opacity:1;fill-rule:nonzero;stroke:none"
           transform="scale(1,-1)"><tspan
             id="tspan198"
             y="0"
             x="0">1</tspan></text>
</g></g><g
       id="g202"><g
         clip-path="url(#clipPath208)"
         id="g204"><path
           id="path210"
           style="fill:none;stroke:#b0b0b0;stroke-width:0.80000001;stroke-linecap:square;stroke-linejoin:round;stroke-miterlimit:10;stroke-dasharray:none;stroke-opacity:1"
           d="M 51.5,155.55494 H 853.2" /></g></g><g
       id="g212"><path
         id="path214"
         style="fill:#000000;fill-opacity:1;fill-rule:nonzero;stroke:#000000;stroke-width:0.80000001;stroke-linecap:butt;stroke-linejoin:round;stroke-miterlimit:10;stroke-dasharray:none;stroke-opacity:1"
         d="M 51.5,155.55494 H 48" /><g
         transform="translate(34.953125,149.85963)"
         id="g216"><text
           id="text220"
           style="font-variant:normal;font-weight:normal;font-size:15px;font-family:'DejaVu Sans';-inkscape-font-specification:DejaVuSans;writing-mode:lr-tb;fill:#000000;fill-opacity:1;fill-rule:nonzero;stroke:none"
           transform="scale(1,-1)"><tspan
             id="tspan218"
             y="0"
             x="0">2</tspan></text>
</g></g><g
       id="g222"><g
         clip-path="url(#clipPath228)"
         id="g224"><path
           id="path230"
           style="fill:none;stroke:#b0b0b0;stroke-width:0.80000001;stroke-linecap:square;stroke-linejoin:round;stroke-miterlimit:10;stroke-dasharray:none;stroke-opacity:1"
           d="M 51.5,198.43357 H 853.2" /></g></g><g
       id="g232"><path
         id="path234"
         style="fill:#000000;fill-opacity:1;fill-rule:nonzero;stroke:#000000;stroke-width:0.80000001;stroke-linecap:butt;stroke-linejoin:round;stroke-miterlimit:10;stroke-dasharray:none;stroke-opacity:1"
         d="M 51.5,198.43357 H 48" /><g
         transform="translate(34.953125,192.73826)"
         id="g236"><text
           id="text240"
           style="font-variant:normal;font-weight:normal;font-size:15px;font-family:'DejaVu Sans';-inkscape-font-specification:DejaVuSans;writing-mode:lr-tb;fill:#000000;fill-opacity:1;fill-rule:nonzero;stroke:none"
           transform="scale(1,-1)"><tspan
             id="tspan238"
             y="0"
             x="0">3</tspan></text>
</g></g><g
       id="g242"><g
         clip-path="url(#clipPath248)"
         id="g244"><path
           id="path250"
           style="fill:none;stroke:#b0b0b0;stroke-width:0.80000001;stroke-linecap:square;stroke-linejoin:round;stroke-miterlimit:10;stroke-dasharray:none;stroke-opacity:1"
           d="M 51.5,241.3122 H 853.2" /></g></g><g
       id="g252"><path
         id="path254"
         style="fill:#000000;fill-opacity:1;fill-rule:nonzero;stroke:#000000;stroke-width:0.80000001;stroke-linecap:butt;stroke-linejoin:round;stroke-miterlimit:10;stroke-dasharray:none;stroke-opacity:1"
         d="M 51.5,241.3122 H 48" /><g
         transform="translate(34.953125,235.61689)"
         id="g256"><text
           id="text260"
           style="font-variant:normal;font-weight:normal;font-size:15px;font-family:'DejaVu Sans';-inkscape-font-specification:DejaVuSans;writing-mode:lr-tb;fill:#000000;fill-opacity:1;fill-rule:nonzero;stroke:none"
           transform="scale(1,-1)"><tspan
             id="tspan258"
             y="0"
             x="0">4</tspan></text>
</g></g><g
       id="g262"><g
         clip-path="url(#clipPath268)"
         id="g264"><path
           id="path270"
           style="fill:none;stroke:#b0b0b0;stroke-width:0.80000001;stroke-linecap:square;stroke-linejoin:round;stroke-miterlimit:10;stroke-dasharray:none;stroke-opacity:1"
           d="M 51.5,284.19083 H 853.2" /></g></g><g
       id="g272"><path
         id="path274"
         style="fill:#000000;fill-opacity:1;fill-rule:nonzero;stroke:#000000;stroke-width:0.80000001;stroke-linecap:butt;stroke-linejoin:round;stroke-miterlimit:10;stroke-dasharray:none;stroke-opacity:1"
         d="M 51.5,284.19083 H 48" /><g
         transform="translate(34.953125,278.49552)"
         id="g276"><text
           id="text280"
           style="font-variant:normal;font-weight:normal;font-size:15px;font-family:'DejaVu Sans';-inkscape-font-specification:DejaVuSans;writing-mode:lr-tb;fill:#000000;fill-opacity:1;fill-rule:nonzero;stroke:none"
           transform="scale(1,-1)"><tspan
             id="tspan278"
             y="0"
             x="0">5</tspan></text>
</g></g><g
       id="g282"><g
         clip-path="url(#clipPath288)"
         id="g284"><path
           id="path290"
           style="fill:none;stroke:#b0b0b0;stroke-width:0.80000001;stroke-linecap:square;stroke-linejoin:round;stroke-miterlimit:10;stroke-dasharray:none;stroke-opacity:1"
           d="M 51.5,327.06946 H 853.2" /></g></g><g
       id="g292"><path
         id="path294"
         style="fill:#000000;fill-opacity:1;fill-rule:nonzero;stroke:#000000;stroke-width:0.80000001;stroke-linecap:butt;stroke-linejoin:round;stroke-miterlimit:10;stroke-dasharray:none;stroke-opacity:1"
         d="M 51.5,327.06946 H 48" /><g
         transform="translate(34.953125,321.37415)"
         id="g296"><text
           id="text300"
           style="font-variant:normal;font-weight:normal;font-size:15px;font-family:'DejaVu Sans';-inkscape-font-specification:DejaVuSans;writing-mode:lr-tb;fill:#000000;fill-opacity:1;fill-rule:nonzero;stroke:none"
           transform="scale(1,-1)"><tspan
             id="tspan298"
             y="0"
             x="0">6</tspan></text>
</g></g><g
       id="g302"><g
         clip-path="url(#clipPath308)"
         id="g304"><path
           id="path310"
           style="fill:none;stroke:#b0b0b0;stroke-width:0.80000001;stroke-linecap:square;stroke-linejoin:round;stroke-miterlimit:10;stroke-dasharray:none;stroke-opacity:1"
           d="M 51.5,369.94809 H 853.2" /></g></g><g
       id="g312"><path
         id="path314"
         style="fill:#000000;fill-opacity:1;fill-rule:nonzero;stroke:#000000;stroke-width:0.80000001;stroke-linecap:butt;stroke-linejoin:round;stroke-miterlimit:10;stroke-dasharray:none;stroke-opacity:1"
         d="M 51.5,369.94809 H 48" /><g
         transform="translate(34.953125,364.25278)"
         id="g316"><text
           id="text320"
           style="font-variant:normal;font-weight:normal;font-size:15px;font-family:'DejaVu Sans';-inkscape-font-specification:DejaVuSans;writing-mode:lr-tb;fill:#000000;fill-opacity:1;fill-rule:nonzero;stroke:none"
           transform="scale(1,-1)"><tspan
             id="tspan318"
             y="0"
             x="0">7</tspan></text>
</g></g><g
       id="g322"><g
         clip-path="url(#clipPath328)"
         id="g324"><path
           id="path330"
           style="fill:none;stroke:#b0b0b0;stroke-width:0.80000001;stroke-linecap:square;stroke-linejoin:round;stroke-miterlimit:10;stroke-dasharray:none;stroke-opacity:1"
           d="M 51.5,412.82672 H 853.2" /></g></g><g
       id="g332"><path
         id="path334"
         style="fill:#000000;fill-opacity:1;fill-rule:nonzero;stroke:#000000;stroke-width:0.80000001;stroke-linecap:butt;stroke-linejoin:round;stroke-miterlimit:10;stroke-dasharray:none;stroke-opacity:1"
         d="M 51.5,412.82672 H 48" /><g
         transform="translate(34.953125,407.13141)"
         id="g336"><text
           id="text340"
           style="font-variant:normal;font-weight:normal;font-size:15px;font-family:'DejaVu Sans';-inkscape-font-specification:DejaVuSans;writing-mode:lr-tb;fill:#000000;fill-opacity:1;fill-rule:nonzero;stroke:none"
           transform="scale(1,-1)"><tspan
             id="tspan338"
             y="0"
             x="0">8</tspan></text>
</g><g
         transform="rotate(90,-64.597969,91.394844)"
         id="g342"><text
           id="text346"
           style="font-variant:normal;font-weight:normal;font-size:20px;font-family:'DejaVu Sans';-inkscape-font-specification:DejaVuSans;writing-mode:lr-tb;fill:#000000;fill-opacity:1;fill-rule:nonzero;stroke:none"
           transform="scale(1,-1)"><tspan
             id="tspan344"
             y="0"
             x="0 14.96 27.200001 35.076248 54.556252 66.816254 72.376251 77.936249 88.436249 100.73625 113.43625 119.79625 130.5925 142.8325 155.0925">Normalized Load</tspan></text>
</g></g><g
       id="g348"><g
         clip-path="url(#clipPath354)"
         id="g350"><path
           id="path356"
           style="fill:none;stroke:#1f77b4;stroke-width:1.5;stroke-linecap:square;stroke-linejoin:round;stroke-miterlimit:10;stroke-dasharray:none;stroke-opacity:1"
           d="m 87.940909,86.612827 11.568543,5.625452 11.568538,23.471111 11.56855,-14.68858 11.56854,4.90378 11.56854,2.49788 11.56855,271.32645 11.56854,-281.50292 11.56854,26.27298 11.56854,-22.46024 11.56854,28.42134 11.56855,-34.734025 11.56854,53.447765 11.56854,-52.852228 11.56854,2.977682 11.56855,19.482556 11.56854,-18.887019 11.56854,153.903649 11.56855,-146.8593 11.56854,24.93359 11.56854,-9.00725 11.56854,-42.26307 11.56855,29.75681 11.56854,68.09 11.56854,-22.50593 11.56854,-48.47668 11.56855,8.13464 11.56854,102.44423 11.56854,-127.888693 11.56854,18.531563 11.56855,108.4015 11.56854,-104.84193 11.56854,-21.96679 11.56854,15.84127 11.56855,-0.40837 11.56854,-17.21951 11.56854,16.07949 11.56854,10.84529 11.56855,-14.67374 11.56854,7.28656 11.56854,3.25794 11.56854,80.08214 11.56855,-74.47517 11.56854,-26.916941 11.56854,47.995011 11.56854,8.58522 11.56855,-37.47725 11.56854,-19.652707 11.56854,16.283667 11.56855,32.26107 11.56854,-4.08368 11.56854,21.62272 11.56854,-40.81601 11.56854,-9.50356 11.56855,-6.014423 11.56854,3.266943 11.56854,4.08368 h 11.56854 l 11.56855,-15.438444 11.56854,63.196124 11.56854,-42.68311 11.56855,48.52075 11.56854,-56.61304 11.56854,86.73314" /></g></g><g
       id="g358"><g
         clip-path="url(#clipPath364)"
         id="g360"><path
           id="path366"
           style="fill:none;stroke:#ff7f0e;stroke-width:1.5;stroke-linecap:square;stroke-linejoin:round;stroke-miterlimit:10;stroke-dasharray:none;stroke-opacity:1"
           d="m 87.940909,75.005455 11.568543,35.805275 11.568538,-7.61036 11.56855,-0.56264 11.56854,13.19142 11.56854,22.83421 11.56855,201.59359 11.56854,-210.60785 11.56854,-10.74714 11.56854,4.4244 11.56854,-25.84295 11.56855,15.5637 11.56854,15.32029 11.56854,-0.45979 11.56854,-23.0051 11.56855,14.79559 11.56854,1.06307 11.56854,5.62564 11.56855,-12.86218 11.56854,13.27675 11.56854,-5.79613 11.56854,-38.701305 11.56855,43.340905 11.56854,-36.790003 11.56854,4.646862 11.56854,8.346661 11.56855,10.75833 11.56854,9.1902 11.56854,-21.19856 11.56854,0.53372 11.56855,22.87749 11.56854,12.9509 11.56854,-24.86135 11.56854,9.91581 11.56855,-29.652649 11.56854,19.492209 11.56854,-7.69892 11.56854,-3.41245 11.56855,36.69309 11.56854,-12.81193 11.56854,-29.890074 11.56854,103.699384 11.56855,-49.74591 11.56854,-32.70087 11.56854,-1.40983 11.56854,12.48843 11.56855,-0.46745 11.56854,-25.26538 11.56854,11.48812 11.56855,-14.883901 11.56854,10.792371 11.56854,-21.310597 11.56854,39.716827 11.56854,-14.04034 11.56855,-17.322808 11.56854,2.136436 11.56854,12.481282 11.56854,-12.071724 11.56855,92.593814 11.56854,-71.78025 11.56854,-3.49133 11.56855,5.62342 11.56854,-17.67755 11.56854,32.32954" /></g></g><g
       id="g368"><g
         clip-path="url(#clipPath374)"
         id="g370"><path
           id="path376"
           style="fill:none;stroke:#2ca02c;stroke-width:1.5;stroke-linecap:square;stroke-linejoin:round;stroke-miterlimit:10;stroke-dasharray:none;stroke-opacity:1"
           d="m 87.940909,109.32641 11.568543,33.62569 11.568538,-22.74306 11.56855,17.29174 11.56854,7.89869 11.56854,13.26996 11.56855,246.04511 11.56854,-297.9936 11.56854,22.83883 11.56854,59.41528 11.56854,-14.23757 11.56855,-63.59255 11.56854,-24.978046 11.56854,29.920226 11.56854,31.56913 11.56855,-46.64544 11.56854,35.24875 11.56854,103.92426 11.56855,-117.85981 11.56854,100.37366 11.56854,-128.491032 11.56854,14.327992 11.56855,77.48671 11.56854,-74.16961 11.56854,5.33813 11.56854,4.06218 11.56855,14.81262 11.56854,40.49502 11.56854,-69.71612 11.56854,-11.050703 11.56855,54.120163 11.56854,-18.4773 11.56854,4.14168 11.56854,26.3514 11.56855,-36.84025 11.56854,-4.12886 11.56854,-14.27377 11.56854,3.51663 11.56855,24.44907 11.56854,6.01491 11.56854,-46.591971 11.56854,75.415941 11.56855,-41.50039 11.56854,-22.10291 11.56854,55.02758 11.56854,-54.36398 11.56855,44.41001 11.56854,-35.42592 11.56854,38.23345 11.56855,-39.75206 11.56854,-1.33996 11.56854,21.43931 11.56854,-31.59478 11.56854,2.43101 11.56855,6.00931 11.56854,3.3231 11.56854,23.58324 11.56854,145.19494 11.56855,-135.40239 11.56854,11.28004 11.56854,6.77031 11.56855,54.95921 11.56854,-100.84686 11.56854,37.07214" /></g></g><g
       id="g378"><g
         clip-path="url(#clipPath384)"
         id="g380"><path
           id="path386"
           style="fill:none;stroke:#d62728;stroke-width:1.5;stroke-linecap:square;stroke-linejoin:round;stroke-miterlimit:10;stroke-dasharray:none;stroke-opacity:1"
           d="m 87.940909,125.95407 11.568543,-1.66316 11.568538,19.62976 11.56855,-33.21328 11.56854,-1.73379 11.56854,10.23281 11.56855,251.39798 11.56854,-267.43945 11.56854,43.20172 11.56854,5.39661 11.56854,-19.44245 11.56855,-9.88906 11.56854,38.86585 11.56854,-50.38344 11.56854,-7.92509 11.56855,10.60232 11.56854,0.64465 11.56854,150.26601 11.56855,-148.91076 11.56854,71.50795 11.56854,-75.17332 11.56854,2.26212 11.56855,15.32 11.56854,67.03728 11.56854,-42.63116 11.56854,-41.01048 11.56855,10.49228 11.56854,166.51365 11.56854,-175.45308 11.56854,2.81391 11.56855,36.25857 11.56854,-31.66443 11.56854,-21.969412 11.56854,10.037412 11.56855,30.79065 11.56854,-43.295437 11.56854,24.743057 11.56854,-6.75071 11.56855,3.50539 11.56854,-7.78061 11.56854,6.40882 11.56854,86.93716 11.56855,-86.61704 11.56854,-17.29814 11.56854,25.46442 11.56854,25.51704 11.56855,-31.60019 11.56854,-19.53173 11.56854,15.3138 11.56855,16.77801 11.56854,-14.44161 11.56854,33.34474 11.56854,-31.087 11.56854,-9.18828 11.56855,-4.17991 11.56854,7.24267 h 11.56854 11.56854 l 11.56855,10.3525 11.56854,69.40358 11.56854,-61.27014 11.56855,42.17636 11.56854,-75.219823 11.56854,89.595123" /></g></g><g
       id="g388"><g
         clip-path="url(#clipPath394)"
         id="g390"><path
           id="path396"
           style="fill:none;stroke:#9467bd;stroke-width:1.5;stroke-linecap:square;stroke-linejoin:round;stroke-miterlimit:10;stroke-dasharray:none;stroke-opacity:1"
           d="m 87.940909,89.402096 11.568543,15.532234 11.568538,37.43232 11.56855,-37.15582 11.56854,-1.00885 11.56854,22.76721 11.56855,263.90775 11.56854,-286.36109 11.56854,94.89223 11.56854,144.94182 11.56854,-231.67359 11.56855,40.31943 11.56854,-75.112897 11.56854,51.285247 11.56854,-22.04303 11.56855,22.04303 11.56854,-21.70273 11.56854,48.84574 11.56855,-0.75616 11.56854,-16.52429 11.56854,65.99963 11.56854,-39.90422 11.56855,-26.0629 11.56854,-32.70379 11.56854,161.21599 11.56854,-106.41595 11.56855,-35.67907 11.56854,59.69822 11.56854,-89.301716 11.56854,41.285656 11.56855,2.84893 11.56854,-41.404673 11.56854,6.029813 11.56854,23.63197 11.56855,-42.536236 11.56854,28.047496 11.56854,-10.87029 11.56854,-13.34002 11.56855,48.17698 11.56854,17.80847 11.56854,42.87863 11.56854,42.87863 11.56855,-36.28192 11.56854,-97.7138 11.56854,13.34002 11.56854,-32.364999 11.56855,42.399789 11.56854,-31.218463 11.56854,11.863523 11.56855,106.88735 11.56854,-115.84167 11.56854,-10.229945 11.56854,106.281485 11.56854,-42.87863 11.56855,-40.96441 11.56854,8.82768 11.56854,-30.139378 11.56854,19.397478 11.56855,69.27745 11.56854,-24.73083 11.56854,59.6698 11.56855,-80.90895 11.56854,-40.113715 11.56854,170.633325" /></g></g><g
       id="g398"><g
         clip-path="url(#clipPath404)"
         id="g400"><path
           id="path406"
           style="fill:none;stroke:#808080;stroke-width:1.79999995;stroke-linecap:butt;stroke-linejoin:round;stroke-miterlimit:10;stroke-dasharray:6.66, 2.88;stroke-dashoffset:0;stroke-opacity:1"
           d="M 51.5,112.67631 H 853.2" /></g></g><g
       id="g408"><path
         id="path410"
         style="fill:none;stroke:#000000;stroke-width:0.80000001;stroke-linecap:square;stroke-linejoin:miter;stroke-miterlimit:10;stroke-dasharray:none;stroke-opacity:1"
         d="M 51.5,58.52 V 421.2" /><path
         id="path412"
         style="fill:none;stroke:#000000;stroke-width:0.80000001;stroke-linecap:square;stroke-linejoin:miter;stroke-miterlimit:10;stroke-dasharray:none;stroke-opacity:1"
         d="M 853.2,58.52 V 421.2" /><path
         id="path414"
         style="fill:none;stroke:#000000;stroke-width:0.80000001;stroke-linecap:square;stroke-linejoin:miter;stroke-miterlimit:10;stroke-dasharray:none;stroke-opacity:1"
         d="M 51.5,58.52 H 853.2" /><path
         id="path416"
         style="fill:none;stroke:#000000;stroke-width:0.80000001;stroke-linecap:square;stroke-linejoin:miter;stroke-miterlimit:10;stroke-dasharray:none;stroke-opacity:1"
         d="M 51.5,421.2 H 853.2" /><path
         id="path418"
         style="fill:#ffffff;fill-opacity:0.8;fill-rule:nonzero;stroke:#cccccc;stroke-width:1;stroke-linecap:butt;stroke-linejoin:miter;stroke-miterlimit:10;stroke-dasharray:none;stroke-opacity:0.8"
         d="M 702.1375,299.12187 H 842.7 c 2,0 3,1 3,3 V 410.7 c 0,2 -1,3 -3,3 H 702.1375 c -2,0 -3,-1 -3,-3 V 302.12187 c 0,-2 1,-3 3,-3 z" /><path
         id="path420"
         style="fill:none;stroke:#1f77b4;stroke-width:1.5;stroke-linecap:square;stroke-linejoin:round;stroke-miterlimit:10;stroke-dasharray:none;stroke-opacity:1"
         d="m 705.1375,401.55937 h 15 15" /><g
         transform="translate(747.1375,396.30937)"
         id="g422"><text
           id="text426"
           style="font-variant:normal;font-weight:normal;font-size:15px;font-family:'DejaVu Sans';-inkscape-font-specification:DejaVuSans;writing-mode:lr-tb;fill:#000000;fill-opacity:1;fill-rule:nonzero;stroke:none"
           transform="scale(1,-1)"><tspan
             id="tspan424"
             y="0"
             x="0 9.3468752 18.511875">RTE</tspan></text>
</g><path
         id="path428"
         style="fill:none;stroke:#ff7f0e;stroke-width:1.5;stroke-linecap:square;stroke-linejoin:round;stroke-miterlimit:10;stroke-dasharray:none;stroke-opacity:1"
         d="m 705.1375,379.54375 h 15 15" /><g
         transform="translate(747.1375,374.29375)"
         id="g430"><text
           id="text434"
           style="font-variant:normal;font-weight:normal;font-size:15px;font-family:'DejaVu Sans';-inkscape-font-specification:DejaVuSans;writing-mode:lr-tb;fill:#000000;fill-opacity:1;fill-rule:nonzero;stroke:none"
           transform="scale(1,-1)"><tspan
             id="tspan432"
             y="0"
             x="0 14.506875 18.676874 28.186874 37.366875 48.991875 55.156876 64.351875 73.861877 83.386871">WinoGrande</tspan></text>
</g><path
         id="path436"
         style="fill:none;stroke:#2ca02c;stroke-width:1.5;stroke-linecap:square;stroke-linejoin:round;stroke-miterlimit:10;stroke-dasharray:none;stroke-opacity:1"
         d="m 705.1375,357.52812 h 15 15" /><g
         transform="translate(747.1375,352.27812)"
         id="g438"><text
           id="text442"
           style="font-variant:normal;font-weight:normal;font-size:15px;font-family:'DejaVu Sans';-inkscape-font-specification:DejaVuSans;writing-mode:lr-tb;fill:#000000;fill-opacity:1;fill-rule:nonzero;stroke:none"
           transform="scale(1,-1)"><tspan
             id="tspan440"
             y="0"
             x="0 11.805 22.094999 33.900002">OBQA</tspan></text>
</g><path
         id="path444"
         style="fill:none;stroke:#d62728;stroke-width:1.5;stroke-linecap:square;stroke-linejoin:round;stroke-miterlimit:10;stroke-dasharray:none;stroke-opacity:1"
         d="m 705.1375,335.5125 h 15 15" /><g
         transform="translate(747.1375,330.2625)"
         id="g446"><text
           id="text450"
           style="font-variant:normal;font-weight:normal;font-size:15px;font-family:'DejaVu Sans';-inkscape-font-specification:DejaVuSans;writing-mode:lr-tb;fill:#000000;fill-opacity:1;fill-rule:nonzero;stroke:none"
           transform="scale(1,-1)"><tspan
             id="tspan448"
             y="0"
             x="0 10.29 19.469999 28.65 32.82">BoolQ</tspan></text>
</g><path
         id="path452"
         style="fill:none;stroke:#9467bd;stroke-width:1.5;stroke-linecap:square;stroke-linejoin:round;stroke-miterlimit:10;stroke-dasharray:none;stroke-opacity:1"
         d="m 705.1375,313.49687 h 15 15" /><g
         transform="translate(747.1375,308.24687)"
         id="g454"><text
           id="text458"
           style="font-variant:normal;font-weight:normal;font-size:15px;font-family:'DejaVu Sans';-inkscape-font-specification:DejaVuSans;writing-mode:lr-tb;fill:#000000;fill-opacity:1;fill-rule:nonzero;stroke:none"
           transform="scale(1,-1)"><tspan
             id="tspan456"
             y="0"
             x="0 9.0450001 13.47 25.275">PIQA</tspan></text>
</g></g></g></svg>